<?xml version="1.0" encoding="UTF-8"?>
<svg version="1.1" xmlns="http://www.w3.org/2000/svg" width="1024" height="1024">
<path d="M0 0 C337.92 0 675.84 0 1024 0 C1024 337.92 1024 675.84 1024 1024 C686.08 1024 348.16 1024 0 1024 C0 686.08 0 348.16 0 0 Z " fill="#A1E28A" transform="translate(0,0)"/>
<path d="M0 0 C0.7842334 0.33370605 1.5684668 0.66741211 2.37646484 1.01123047 C23.49287619 10.16352433 42.32109015 23.17310876 59 39 C59.95648437 39.90363281 60.91296875 40.80726563 61.8984375 41.73828125 C94.53321377 73.13837076 109.49584502 112.91449698 120 156 C137.50559788 227.76628069 164.02291472 297.71356753 189.66625977 366.921875 C192.59387614 374.85016528 195.44126074 382.66719088 197 391 C197.30357422 392.48306641 197.30357422 392.48306641 197.61328125 393.99609375 C203.55619475 428.96629905 198.29492555 469.45110855 178.27246094 499.23632812 C174.65591105 504.24898285 170.3480183 508.62640512 166 513 C165.2059375 513.81984375 164.411875 514.6396875 163.59375 515.484375 C158.3828125 520.80859375 158.3828125 520.80859375 156 522 C155.37272233 523.91750756 154.82411718 525.86094668 154.3125 527.8125 C150.48060949 540.6227617 143.25464368 549.71957737 134 559 C132.82824219 560.2065625 132.82824219 560.2065625 131.6328125 561.4375 C110.05354687 582.36284849 79.88511088 586.40634082 51.171875 586.1484375 C25.60286556 585.6777949 1.85015356 576.77217874 -20.6640625 565.21484375 C-44.03720465 552.58822278 -44.03720465 552.58822278 -69.6875 547.375 C-70.36474121 547.33930908 -71.04198242 547.30361816 -71.73974609 547.2668457 C-80.42225919 547.29515141 -86.86020832 552.70678774 -92.88671875 558.4609375 C-94.49744207 560.0886709 -96.09766522 561.72685832 -97.6875 563.375 C-98.48994141 564.18710937 -99.29238281 564.99921875 -100.11914062 565.8359375 C-106.44302098 572.27855194 -112.34710407 579.02798705 -118.17114258 585.91943359 C-123.61003315 592.34226805 -129.22944728 598.56254257 -135.01586914 604.67407227 C-137.8760884 607.699199 -140.67231549 610.75642136 -143.390625 613.91015625 C-147.22150769 618.31686766 -151.29884101 622.446192 -155.4375 626.5625 C-156.14970703 627.27857422 -156.86191406 627.99464844 -157.59570312 628.73242188 C-171.38190716 642.49358285 -186.76541743 654.52778776 -202.82470703 665.51171875 C-204.27943776 666.50700927 -205.73093012 667.50704899 -207.17919922 668.51171875 C-258.22563462 703.89966862 -258.22563462 703.89966862 -283 700 C-284.84375 698.8515625 -284.84375 698.8515625 -286 697 C-286.49505699 693.52059005 -286.47140252 691.71708055 -284.5234375 688.75390625 C-283.81445312 688.03074219 -283.10546875 687.30757812 -282.375 686.5625 C-281.55773437 685.70785156 -280.74046875 684.85320313 -279.8984375 683.97265625 C-279.43920898 683.50359863 -278.97998047 683.03454102 -278.50683594 682.55126953 C-275.62172325 679.58108061 -272.81964493 676.53216956 -270 673.5 C-268.78028079 672.19109598 -267.56023482 670.88249637 -266.33984375 669.57421875 C-265.76218262 668.95466309 -265.18452148 668.33510742 -264.58935547 667.69677734 C-263.27764422 666.29640972 -261.95474588 664.90652987 -260.62890625 663.51953125 C-234.79055513 635.92280463 -211.76349779 599.22388316 -196 565 C-195.49597656 563.93136719 -194.99195313 562.86273437 -194.47265625 561.76171875 C-183.10475233 538.5986439 -183.10475233 538.5986439 -182 514 C-185.72150232 507.83263549 -190.85236228 503.0143028 -196.125 498.1875 C-196.87346191 497.49100342 -197.62192383 496.79450684 -198.39306641 496.0769043 C-201.69611897 493.00988516 -205.02004694 489.96922726 -208.390625 486.9765625 C-242.32018923 456.78859074 -260.49340483 411.42221868 -263.3515625 366.50390625 C-263.54793062 357.92618955 -263.54793062 357.92618955 -261.625 354.67578125 C-260 353 -260 353 -257.5625 352.4375 C-253.84549816 353.25342723 -253.16154647 354.85844709 -251 358 C-249.27733681 361.35626809 -247.76416604 364.7955962 -246.25 368.25 C-245.35856811 370.23850332 -244.46663595 372.22678243 -243.57421875 374.21484375 C-242.35672923 376.94601734 -241.14180725 379.67818409 -239.93603516 382.41455078 C-233.23850938 397.56331857 -224.81986595 411.40675353 -214 424 C-213.06800781 425.13115234 -213.06800781 425.13115234 -212.1171875 426.28515625 C-207.00699702 432.31600858 -201.24961366 437.18330881 -195 442 C-194.16984375 442.65742187 -193.3396875 443.31484375 -192.484375 443.9921875 C-171.34179936 460.1409646 -147.02129853 467.53195627 -121.82827759 474.78744507 C-90.74253708 483.74408139 -64.01807041 494.80843975 -38.18188477 514.39550781 C-5.83122896 538.78789451 33.54991759 560.2196437 75.51318359 554.66748047 C90.20434248 552.12619562 107.24989474 547.37440186 116.74511719 535.00268555 C118.12206773 532.80519036 118.87948357 530.74373538 119.65625 528.2734375 C120.04006836 527.06953369 120.04006836 527.06953369 120.43164062 525.84130859 C120.61919922 525.23367676 120.80675781 524.62604492 121 524 C120.30890137 524.02618408 119.61780273 524.05236816 118.90576172 524.0793457 C88.5323945 525.06355243 46.68151832 522.98285616 21.62109375 503.52734375 C18.33893002 500.43499189 17.0884131 498.61889172 16.4375 494.0625 C16.5911789 490.48779509 17.03341467 489.9599024 19.5 487 C22.19812549 484.72158292 24.95912225 484.66071136 28.40820312 484.75097656 C33.64854603 485.25447597 38.78578961 486.38688151 43.9362793 487.4508667 C47.42175932 488.1671982 50.91397553 488.84894536 54.40625 489.53125 C55.08264526 489.66357025 55.75904053 489.7958905 56.45593262 489.93222046 C74.84485885 493.5115728 98.09672519 497.26396654 115.63671875 488.71484375 C121.20502818 484.67436798 123.49602994 476.04027985 124.71484375 469.44921875 C125.70306539 460.96134246 126.28287562 453.09714084 121 446 C115.311365 440.15279362 108.45074508 435.78271518 101.65515137 431.3494873 C98.63881049 429.38058181 95.63649376 427.39048639 92.6328125 425.40234375 C92.04943115 425.01680328 91.4660498 424.63126282 90.86499023 424.23403931 C84.45065112 419.9883479 78.15526427 415.61415488 72 411 C71.24847656 410.44441406 70.49695313 409.88882812 69.72265625 409.31640625 C65.01377234 405.60900276 62.67654611 401.91484549 61.65234375 395.98828125 C61.35924172 392.042677 61.94179743 389.5716085 64.375 386.5625 C67.3849099 383.62425462 67.99658139 383.05623143 72.13671875 382.82421875 C76.22068679 383.01004136 79.89287485 383.73993719 83.8125 384.8125 C84.58859619 385.0197168 85.36469238 385.22693359 86.16430664 385.44042969 C96.72200053 388.35276071 107.11774274 391.83704543 117.52075195 395.25317383 C118.24777313 395.49177628 118.97479431 395.73037872 119.72384644 395.97621155 C121.09921571 396.42838327 122.47410215 396.88202724 123.84841919 397.33738708 C134.04651905 400.69711699 144.81907913 402.05578504 154.86328125 397.32421875 C158.32972844 395.1759087 161.46628542 392.85857605 163 389 C162.55169053 382.9655403 161.11550052 377.72169506 159.11328125 372.03515625 C158.67368324 370.756371 158.67368324 370.756371 158.22520447 369.45175171 C157.59253878 367.61465334 156.95627877 365.77878959 156.31677246 363.94406128 C155.29017882 360.99845378 154.27336708 358.04961965 153.25878906 355.09985352 C151.18079567 349.06369511 149.09106887 343.03163863 147 337 C126.61625745 278.16345986 106.65491008 218.72916067 90.3125 158.625 C83.50869659 133.62908842 75.31591583 109.22077099 60 88 C59.59201172 87.43265137 59.18402344 86.86530273 58.76367188 86.28076172 C32.44327558 50.20574527 -7.25957898 27.56208771 -51 20 C-56.59347461 19.20531095 -62.04131551 18.81820499 -67.6875 18.76171875 C-68.49926193 18.7519249 -69.31102386 18.74213104 -70.14738464 18.73204041 C-88.09800814 18.56012641 -105.45937806 18.70073172 -123 23 C-123.89090332 23.21430664 -124.78180664 23.42861328 -125.69970703 23.64941406 C-151.43973223 30.02066152 -175.97313117 40.74836738 -197 57 C-197.89332031 57.6703125 -198.78664063 58.340625 -199.70703125 59.03125 C-239.48818951 90.04504655 -255.52975202 131.81468292 -262.8359375 180.44140625 C-263.02410034 181.67177612 -263.02410034 181.67177612 -263.21606445 182.92700195 C-263.43786544 184.41427212 -263.64604159 185.90367759 -263.83666992 187.39526367 C-264.53151539 192.13960119 -265.96607078 195.2912547 -269 199 C-273.55185628 202.25788101 -278.77679446 200.83837439 -284 200 C-286.02714526 199.50430167 -288.04826444 198.98329286 -290.0625 198.4375 C-299.23120398 195.95408584 -299.23120398 195.95408584 -308.1640625 198.1484375 C-310.60042814 199.96463734 -312.78490763 201.91830463 -315 204 C-315.99821306 204.92890672 -316.9969417 205.8572596 -317.99609375 206.78515625 C-319.64106095 208.31541654 -321.28577244 209.84590913 -322.92773438 211.37939453 C-342.76520037 229.76966361 -366.70742225 242.66218622 -391.86914062 252.18798828 C-393.61370715 252.85279445 -395.34760366 253.54554006 -397.078125 254.24609375 C-429.5549901 267.04755745 -470.0306493 267.1816805 -504 261 C-504.98258789 260.82307617 -505.96517578 260.64615234 -506.97753906 260.46386719 C-529.79019221 256.2506212 -550.83476078 249.48265983 -572 240 C-572.86625 239.61360352 -573.7325 239.22720703 -574.625 238.82910156 C-607.43528961 223.94912256 -645.1400834 198.56981003 -660.125 164.4375 C-663.03864805 156.32090899 -663.15101997 147.18609993 -660.02734375 139.125 C-654.70865579 128.12360742 -645.35892921 123.54938631 -634.19995117 119.62963867 C-633.16459229 119.27748291 -632.1292334 118.92532715 -631.0625 118.5625 C-628.83060734 117.77899277 -626.59883741 116.99513587 -624.3671875 116.2109375 C-622.24486432 115.47374914 -620.12247388 114.73675437 -618 114 C-599.93521619 107.6790527 -582.42353896 100.10162585 -564.94921875 92.30859375 C-552.41110353 86.72083099 -539.78520223 81.40092725 -527.0625 76.25 C-526.29616241 75.93952728 -525.52982483 75.62905457 -524.74026489 75.30917358 C-519.50027937 73.18902264 -514.25318699 71.08721864 -509 69 C-508.2342868 68.69546906 -507.46857361 68.39093811 -506.67965698 68.07717896 C-450.64521723 45.85328083 -391.68405554 35.09506836 -332 49 C-330.46907715 49.35602295 -330.46907715 49.35602295 -328.90722656 49.71923828 C-313.00168596 53.4679207 -297.37749824 57.62452366 -282.11328125 63.484375 C-271.78830303 67.60196084 -271.78830303 67.60196084 -261.08886719 66.26782227 C-256.1989091 63.84090343 -252.19569755 60.99735455 -248.125 57.375 C-247.52131592 56.84865967 -246.91763184 56.32231934 -246.2956543 55.7800293 C-241.80506841 51.82371043 -237.59658564 47.63134055 -233.40625 43.359375 C-229.20113789 39.23618066 -224.65304369 35.6023564 -220 32 C-219.17072998 31.35611328 -219.17072998 31.35611328 -218.32470703 30.69921875 C-187.01985203 6.56640079 -150.09411477 -7.7376686 -111 -13 C-110.28553711 -13.10296387 -109.57107422 -13.20592773 -108.83496094 -13.31201172 C-72.16311053 -18.49586194 -34.15473402 -14.56220975 0 0 Z " fill="#1E1E21" transform="translate(742,172)"/>
<path d="M0 0 C2.47895078 1.92157662 4.80298715 3.92575039 7.109375 6.05078125 C7.91503906 6.77652344 8.72070312 7.50226563 9.55078125 8.25 C25.49641003 23.34719157 43.48215519 49.17503151 45.421875 71.67578125 C45.109375 75.05078125 45.109375 75.05078125 44.109375 77.48828125 C41.54063883 79.49510638 39.49584312 79.42047005 36.30712891 79.35180664 C32.48651872 78.82849934 29.55008744 77.03377196 26.296875 75.05078125 C25.60255371 74.64432373 24.90823242 74.23786621 24.19287109 73.8190918 C19.12714308 70.8034427 14.3614248 67.45776655 9.64453125 63.921875 C7.03698753 61.99735506 4.39920845 60.17651495 1.671875 58.42578125 C0.88941406 57.91789062 0.10695313 57.41 -0.69921875 56.88671875 C-2.84845924 55.80671591 -2.84845924 55.80671591 -4.9140625 56.69140625 C-7.06745114 58.1723929 -9.07109804 59.75143089 -11.078125 61.42578125 C-22.04930821 70.07682899 -34.15174201 72.16284248 -47.890625 71.05078125 C-60.55577029 68.50861867 -71.30227529 61.448968 -78.890625 51.05078125 C-81.51584715 46.80005818 -83.01593457 42.97622252 -83.890625 38.05078125 C-84.49648438 37.89222656 -85.10234375 37.73367188 -85.7265625 37.5703125 C-102.81948717 32.8105904 -102.81948717 32.8105904 -106.890625 27.05078125 C-107.43392271 23.40574751 -107.29316429 21.67111957 -105.2734375 18.55859375 C-77.0320309 -11.24635093 -36.04343535 -24.30496519 0 0 Z " fill="#1E1E21" transform="translate(665.890625,331.94921875)"/>
<path d="M0 0 C0.51699663 20.76603127 -2.1923995 38.23130962 -16.1953125 54.2421875 C-18 56 -18 56 -20 56 C-20.69481431 38.24363424 -19.41849372 18.51225018 -6.8046875 4.57421875 C-1.68962926 0 -1.68962926 0 0 0 Z " fill="#A0E19D" transform="translate(915,606)"/>
<path d="M0 0 C0.66 0 1.32 0 2 0 C7.66427527 12.60852964 12.212411 25.26429033 16.01123047 38.55078125 C16.93823654 41.78454464 17.88189205 45.01291875 18.8296051 48.24064636 C19.68508719 51.16322715 20.5303202 54.0887021 21.37283325 57.01504517 C21.78895392 58.45645347 22.20793424 59.89703947 22.62985229 61.33676147 C23.22137712 63.3611634 23.79978932 65.3888801 24.375 67.41796875 C24.71273437 68.59125732 25.05046875 69.7645459 25.3984375 70.97338867 C25.9691407 73.84473912 26.02059618 75.3047811 25 78 C25 77.34 25 76.68 25 76 C24.34 76 23.68 76 23 76 C22.87625 74.88625 22.7525 73.7725 22.625 72.625 C22.3534187 68.96896323 22.3534187 68.96896323 20 67 C20.375 63.875 20.375 63.875 21 61 C20.01 61 19.02 61 18 61 C18.020625 59.989375 18.04125 58.97875 18.0625 57.9375 C18.00312266 54.19672743 17.60204915 50.68755102 17 47 C16.34 47 15.68 47 15 47 C14.87882813 46.30132812 14.75765625 45.60265625 14.6328125 44.8828125 C14.46523438 43.97273438 14.29765625 43.06265625 14.125 42.125 C13.96257813 41.22007812 13.80015625 40.31515625 13.6328125 39.3828125 C13.16955297 36.83494012 13.16955297 36.83494012 11 35 C8.85660684 28.83774466 7.99264123 22.43104794 7 16 C6.34 16 5.68 16 5 16 C3.64560332 13.29120665 3.93498549 10.99066732 4 8 C3.34 8 2.68 8 2 8 C-0.1519437 4.77208445 -0.20086443 3.71599191 0 0 Z " fill="#A1DCB1" transform="translate(815,284)"/>
<path d="M0 0 C0.99 0 1.98 0 3 0 C3.144375 1.11375 3.28875 2.2275 3.4375 3.375 C3.78372035 6.82142047 3.78372035 6.82142047 5 9 C5.04022391 11.3329866 5.04320247 13.66706666 5 16 C5.66 16 6.32 16 7 16 C12.34539474 28.74671053 12.34539474 28.74671053 12 36 C12.33 36.99 12.66 37.98 13 39 C14.1296081 43.39292037 14.07640175 47.49229653 14 52 C14.66 52 15.32 52 16 52 C16.12375 53.11375 16.2475 54.2275 16.375 55.375 C16.6465813 59.03103677 16.6465813 59.03103677 19 61 C19.1953125 63.3828125 19.1953125 63.3828125 19.125 66.125 C19.10695313 67.03507812 19.08890625 67.94515625 19.0703125 68.8828125 C19.04710937 69.58148438 19.02390625 70.28015625 19 71 C16.29797495 68.29797495 16.04681106 65.94467472 15.1171875 62.23828125 C14.9417189 61.54756027 14.76625031 60.85683929 14.58546448 60.14518738 C14.00878204 57.86921719 13.44185183 55.59093662 12.875 53.3125 C12.47863934 51.73940847 12.08157822 50.16649327 11.68383789 48.59375 C11.07060237 46.16810394 10.45800228 43.74231264 9.84809875 41.31582642 C8.46905998 35.83214813 7.06026553 30.35696017 5.62890625 24.88671875 C5.44235474 24.17220047 5.25580322 23.45768219 5.06359863 22.72151184 C4.34610727 19.97364102 3.62860714 17.2257884 2.90545654 14.47940063 C2.41153587 12.60171531 1.92244435 10.72276168 1.43359375 8.84375 C1.15572021 7.78349609 0.87784668 6.72324219 0.59155273 5.63085938 C0 3 0 3 0 0 Z " fill="#A0E0B1" transform="translate(852,290)"/>
<path d="M0 0 C23.23513733 3.52317821 45.59234542 22.28758502 62 38 C57.81348341 38 55.9740249 35.64437394 53 33 C49.23280314 29.66379268 49.23280314 29.66379268 45 27 C45 26.34 45 25.68 45 25 C44.01 25 43.02 25 42 25 C41.278125 24.2575 40.55625 23.515 39.8125 22.75 C35.38252108 18.41846505 30.20053741 15.77506718 24 15 C24 14.34 24 13.68 24 13 C23.34 13 22.68 13 22 13 C21.34 12.01 20.68 11.02 20 10 C17.72502965 9.37722015 17.72502965 9.37722015 15 9 C12.66237777 8.34853151 10.32809543 7.68473395 8 7 C8 6.34 8 5.68 8 5 C5.69 5 3.38 5 1 5 C1 4.01 1 3.02 1 2 C0.67 1.34 0.34 0.68 0 0 Z " fill="#ADE5BD" transform="translate(722,200)"/>
<path d="M0 0 C3.21187534 1.60593767 3.60622255 4.89657047 4.6875 8.125 C4.92533203 8.77726563 5.16316406 9.42953125 5.40820312 10.1015625 C6.96822384 14.71300204 7.29040733 18.17550412 6 23 C2.17853358 28.14611438 -3.72173909 31.7760791 -10 33 C-13.35202587 33.21130249 -16.64769229 33.18547604 -20 33 C-20 32.67 -20 32.34 -20 32 C-16.535 31.505 -16.535 31.505 -13 31 C-13 30.01 -13 29.02 -13 28 C-9.37 28 -5.74 28 -2 28 C-1.67 26.68 -1.34 25.36 -1 24 C0.5 21.75 0.5 21.75 2 20 C2.33 20 2.66 20 3 20 C3.16677282 16.58343976 3.16677282 16.58343976 3 13 C2.34 12.34 1.68 11.68 1 11 C1 10.01 1 9.02 1 8 C0.01 8.33 -0.98 8.66 -2 9 C-2.6875 6.1875 -2.6875 6.1875 -3 3 C-1.5625 1.125 -1.5625 1.125 0 0 Z " fill="#A2E0A5" transform="translate(899,540)"/>
<path d="M0 0 C0.74476089 0.00141495 1.48952179 0.0028299 2.2568512 0.00428772 C4.61007898 0.00983636 6.96320775 0.02237892 9.31640625 0.03515625 C10.92252466 0.0401779 12.52864457 0.04473964 14.13476562 0.04882812 C18.04951668 0.0597889 21.96419474 0.07701741 25.87890625 0.09765625 C25.87890625 0.42765625 25.87890625 0.75765625 25.87890625 1.09765625 C25.14365723 1.1227124 24.4084082 1.14776855 23.65087891 1.17358398 C20.26842933 1.29076075 16.88617689 1.41292748 13.50390625 1.53515625 C11.76947266 1.59413086 11.76947266 1.59413086 10 1.65429688 C-2.64577611 2.11345517 -2.64577611 2.11345517 -15.12109375 4.09765625 C-16.72984375 4.31421875 -16.72984375 4.31421875 -18.37109375 4.53515625 C-19.27859375 4.72078125 -20.18609375 4.90640625 -21.12109375 5.09765625 C-21.45109375 5.75765625 -21.78109375 6.41765625 -22.12109375 7.09765625 C-24.76109375 7.09765625 -27.40109375 7.09765625 -30.12109375 7.09765625 C-30.45109375 7.75765625 -30.78109375 8.41765625 -31.12109375 9.09765625 C-32.11109375 9.09765625 -33.10109375 9.09765625 -34.12109375 9.09765625 C-34.12109375 8.43765625 -34.12109375 7.77765625 -34.12109375 7.09765625 C-36.43109375 7.42765625 -38.74109375 7.75765625 -41.12109375 8.09765625 C-40.79109375 7.43765625 -40.46109375 6.77765625 -40.12109375 6.09765625 C-37.82373047 5.42749023 -37.82373047 5.42749023 -34.80078125 4.84375 C-33.16109375 4.52180664 -33.16109375 4.52180664 -31.48828125 4.19335938 C-30.33585938 3.97615234 -29.1834375 3.75894531 -27.99609375 3.53515625 C-26.866875 3.31408203 -25.73765625 3.09300781 -24.57421875 2.86523438 C-16.34085945 1.26965948 -8.41131231 -0.0613545 0 0 Z " fill="#ABE0B4" transform="translate(651.12109375,189.90234375)"/>
<path d="M0 0 C0.495 0.99 0.495 0.99 1 2 C0.32646484 2.15557373 -0.34707031 2.31114746 -1.04101562 2.47143555 C-13.21267176 5.29759122 -25.26303626 8.14527669 -37.0859375 12.21484375 C-40 13 -40 13 -43 12 C-41.35 11.67 -39.7 11.34 -38 11 C-38 10.34 -38 9.68 -38 9 C-31.36270688 5.47649871 -25.486774 4.2798794 -18 4 C-17.67 3.01 -17.34 2.02 -17 1 C-15.948125 1.020625 -14.89625 1.04125 -13.8125 1.0625 C-9.10674881 0.98535654 -4.72194162 -0.13491262 0 0 Z " fill="#A6E5AF" transform="translate(621,159)"/>
<path d="M0 0 C1.7290774 -0.02725341 3.45828176 -0.04650987 5.1875 -0.0625 C6.15042969 -0.07410156 7.11335937 -0.08570313 8.10546875 -0.09765625 C10.86275051 -0.00463055 13.30958743 0.42604532 16 1 C17.9996441 1.03772913 20.00054061 1.04649906 22 1 C21.67 1.99 21.34 2.98 21 4 C21.99 4 22.98 4 24 4 C24.33 3.34 24.66 2.68 25 2 C25.33 2.99 25.66 3.98 26 5 C27.65 4.67 29.3 4.34 31 4 C31.33 4.66 31.66 5.32 32 6 C34.01669827 7.13350534 34.01669827 7.13350534 36 8 C36 8.66 36 9.32 36 10 C36.66 10.33 37.32 10.66 38 11 C32.43743845 10.24606604 27.18476234 8.69864963 21.8125 7.125 C19.94024464 6.58284799 18.06784995 6.04117689 16.1953125 5.5 C15.30102539 5.24089844 14.40673828 4.98179687 13.48535156 4.71484375 C9.00402849 3.42591311 4.50510976 2.20276935 0 1 C0 0.67 0 0.34 0 0 Z " fill="#A0DDB3" transform="translate(700,159)"/>
<path d="M0 0 C0.99 0.33 1.98 0.66 3 1 C1.35 1.33 -0.3 1.66 -2 2 C-1.34 1.34 -0.68 0.68 0 0 Z M-2 3 C-4.64711809 4.76474539 -6.40356298 5.53998404 -9.375 6.4375 C-13.925975 7.90269195 -17.58219303 9.58219303 -21 13 C-21.99 13 -22.98 13 -24 13 C-24 11.68 -24 10.36 -24 9 C-25.98 8.34 -27.96 7.68 -30 7 C-26.34894057 4.56596038 -23.42111065 4.63050114 -19.1875 4.5 C-13.56158395 4.32370401 -7.06409572 1.31196809 -2 3 Z " fill="#A5E274" transform="translate(488,867)"/>
<path d="M0 0 C16.83 0 33.66 0 51 0 C51 0.33 51 0.66 51 1 C42.11092868 2.78099461 33.41756956 3.21774111 24.375 3.25 C23.33931885 3.25902344 22.3036377 3.26804687 21.23657227 3.27734375 C13.98676121 3.24983241 7.11105801 2.39208672 0 1 C0 0.67 0 0.34 0 0 Z " fill="#141715" transform="translate(775,755)"/>
<path d="M0 0 C1.9375 0.6875 1.9375 0.6875 4 2 C4.36989762 3.65893479 4.69852101 5.32727787 5 7 C5.5712411 8.45089876 6.17756483 9.88832271 6.8125 11.3125 C8.96267735 16.50876192 10.27062677 21.77045043 11.55859375 27.2265625 C12.42894696 30.86812035 13.40188482 34.34366902 14.8125 37.8125 C16 41 16 41 15 44 C11.75167828 36.14438889 8.84349444 28.17390934 5.99853516 20.16577148 C5.24213335 18.04039591 4.47855866 15.91767893 3.71484375 13.79492188 C3.23133194 12.43765627 2.74824316 11.08023988 2.265625 9.72265625 C1.61255371 7.89359741 1.61255371 7.89359741 0.94628906 6.02758789 C0 3 0 3 0 0 Z " fill="#AFE8B9" transform="translate(899,447)"/>
<path d="M0 0 C19.14 0 38.28 0 58 0 C58 0.33 58 0.66 58 1 C40.46625694 3.66817829 22.68333061 3.11729937 5 3 C5 2.34 5 1.68 5 1 C3.35 1 1.7 1 0 1 C0 0.67 0 0.34 0 0 Z " fill="#B9EB9A" transform="translate(250,435)"/>
<path d="M0 0 C0.66 0.33 1.32 0.66 2 1 C1.34 1.66 0.68 2.32 0 3 C-2.51033283 6.76549924 -2.77860905 9.65744851 -2 14 C0.00488729 20.32310608 3.75873312 24.11321782 9 28 C6 28 6 28 3 27 C1.65057596 25.23601936 0.53450596 23.39158238 -0.62109375 21.49609375 C-1.07613281 21.00238281 -1.53117188 20.50867188 -2 20 C-3.32 20 -4.64 20 -6 20 C-6 15.38 -6 10.76 -6 6 C-5.34 6 -4.68 6 -4 6 C-4 5.01 -4 4.02 -4 3 C-2 1.3125 -2 1.3125 0 0 Z " fill="#AAE8A8" transform="translate(807,556)"/>
<path d="M0 0 C-0.33 1.32 -0.66 2.64 -1 4 C-1.804375 4.12375 -2.60875 4.2475 -3.4375 4.375 C-4.283125 4.58125 -5.12875 4.7875 -6 5 C-6.33 5.66 -6.66 6.32 -7 7 C-7.99 7 -8.98 7 -10 7 C-10.38478516 7.89332031 -10.38478516 7.89332031 -10.77734375 8.8046875 C-12.10969687 11.19696371 -13.43368605 12.42728199 -15.5625 14.125 C-18.21025666 16.20903634 -18.21025666 16.20903634 -20 19 C-22.7696959 19.72886734 -25.12862585 20 -28 20 C-22.20874704 14.36188113 -16.147282 9.51423137 -9.5 4.9375 C-8.79359375 4.44854248 -8.0871875 3.95958496 -7.359375 3.45581055 C-2.25996984 0 -2.25996984 0 0 0 Z " fill="#AEE9B2" transform="translate(560,219)"/>
<path d="M0 0 C1.33333333 1 2.66666667 2 4 3 C4.7425 3.495 5.485 3.99 6.25 4.5 C7.11625 5.2425 7.11625 5.2425 8 6 C8 6.99 8 7.98 8 9 C8.66 9.33 9.32 9.66 10 10 C10 10.99 10 11.98 10 13 C10.99 13.33 11.98 13.66 13 14 C13 15.32 13 16.64 13 18 C13.66 18 14.32 18 15 18 C16.4783226 20.95664519 16.06032783 23.74229737 16 27 C12.31649874 22.44409054 9.59206391 17.2580166 6.671875 12.19921875 C4.94183653 9.22376102 3.26038143 6.34567879 1.1875 3.59375 C0 2 0 2 0 0 Z " fill="#A4E5A9" transform="translate(688,354)"/>
<path d="M0 0 C0.886875 0.309375 1.77375 0.61875 2.6875 0.9375 C5.46709155 1.8290671 8.13136375 2.49377007 11 3 C11.33 3.99 11.66 4.98 12 6 C12.99 6 13.98 6 15 6 C15 6.99 15 7.98 15 9 C15.7425 9.12375 16.485 9.2475 17.25 9.375 C20.97838339 10.22235986 23.2941453 11.2941453 26 14 C26 14.99 26 15.98 26 17 C26.99 17 27.98 17 29 17 C31.1875 20 31.1875 20 33 23 C29.28252733 21.37139293 26.40596536 19.03118034 23.25 16.5 C17.44530423 11.91341663 11.36247002 7.95495589 5.03027344 4.13671875 C3.33987642 3.11334326 1.66781489 2.05977968 0 1 C0 0.67 0 0.34 0 0 Z " fill="#ACE5BF" transform="translate(761,181)"/>
<path d="M0 0 C4.95 0.99 4.95 0.99 10 2 C10 2.66 10 3.32 10 4 C10.99 3.67 11.98 3.34 13 3 C13 3.99 13 4.98 13 6 C13.72703125 6.25652344 14.4540625 6.51304687 15.203125 6.77734375 C23.78188724 10.52755685 30.62103975 18.34369365 37 25 C36.67 25.66 36.34 26.32 36 27 C35.29617188 26.23816406 34.59234375 25.47632813 33.8671875 24.69140625 C23.97666647 14.24914829 13.10370657 7.00838159 0 1 C0 0.67 0 0.34 0 0 Z " fill="#B1E4B5" transform="translate(646,321)"/>
<path d="M0 0 C2 1 2 1 2.97729492 3.3449707 C4.05812707 6.66427489 5.13338726 9.98459434 6.1875 13.3125 C6.56841797 14.46685547 6.94933594 15.62121094 7.34179688 16.81054688 C7.87450195 18.47633789 7.87450195 18.47633789 8.41796875 20.17578125 C8.74563232 21.19583252 9.0732959 22.21588379 9.41088867 23.2668457 C10.00062736 26.0029106 9.94919504 27.40702976 9 30 C6.79680323 25.59360646 5.89075019 23.02549129 6 18 C5.34 18 4.68 18 4 18 C3.35309078 16.3962669 2.70751236 14.79199694 2.0625 13.1875 C1.70285156 12.29417969 1.34320312 11.40085937 0.97265625 10.48046875 C-0.63215047 6.38788938 -1.03935869 4.27291907 0 0 Z " fill="#AEE5B6" transform="translate(869,451)"/>
<path d="M0 0 C9.39903857 7.35576931 16.72737033 16.90259613 23 27 C22.67 27.66 22.34 28.32 22 29 C19.125 27.4375 19.125 27.4375 16 25 C15.57143333 23.38463331 15.15180597 21.76535069 14.8125 20.12890625 C12.4848907 14.03012226 6.82228639 8.7687647 2.20703125 4.2890625 C0 2 0 2 0 0 Z " fill="#B1E6C3" transform="translate(784,239)"/>
<path d="M0 0 C9.16595227 0.24236893 17.39678442 3.10735556 26 6 C23.32356043 6.89214652 21.74615622 7.13540211 19 7.125 C17.9790625 7.12886719 17.9790625 7.12886719 16.9375 7.1328125 C15 7 15 7 12 6 C12 5.34 12 4.68 12 4 C11.01 4.33 10.02 4.66 9 5 C2.66666667 2.66666667 2.66666667 2.66666667 0 0 Z " fill="#A9E7B8" transform="translate(695,193)"/>
<path d="M0 0 C0 1.32 0 2.64 0 4 C1.32 3.67 2.64 3.34 4 3 C4 3.66 4 4.32 4 5 C5.98 4.34 7.96 3.68 10 3 C10 3.99 10 4.98 10 6 C10.66 6 11.32 6 12 6 C12 6.66 12 7.32 12 8 C12.66 8.33 13.32 8.66 14 9 C8.78872823 8.3976582 4.08733949 7.24439965 -0.875 5.5625 C-1.55046875 5.34529297 -2.2259375 5.12808594 -2.921875 4.90429688 C-7.87603131 3.24793739 -7.87603131 3.24793739 -9 1 C-5.846632 0.29925156 -3.27275026 0 0 0 Z " fill="#A6E1A7" transform="translate(851,560)"/>
<path d="M0 0 C2.97808457 2.55264392 4.26590786 5.53181572 6 9 C6.66 9.33 7.32 9.66 8 10 C8 10.66 8 11.32 8 12 C8.66 12 9.32 12 10 12 C10.33 15.63 10.66 19.26 11 23 C11.66 23 12.32 23 13 23 C14.35439668 25.70879335 14.06501451 28.00933268 14 31 C11.13817076 27.63015374 9.66058756 23.96323262 8.125 19.875 C5.99816321 14.36065565 3.66535645 9.07930127 0.8828125 3.85546875 C0 2 0 2 0 0 Z " fill="#A9E4BB" transform="translate(838,258)"/>
<path d="M0 0 C4.33090664 1.49760323 7.87262417 3.77778733 11.5625 6.4375 C12.46863037 7.085979 12.46863037 7.085979 13.39306641 7.74755859 C19.70161469 12.35822218 25.37973759 17.58560801 31 23 C26.81348341 23 24.9740249 20.64437394 22 18 C18.23280314 14.66379268 18.23280314 14.66379268 14 12 C14 11.34 14 10.68 14 10 C13.01 10 12.02 10 11 10 C9.31066078 8.3563186 7.64740076 6.6857124 6 5 C4.91521537 4.22222989 3.81099105 3.47073011 2.6875 2.75 C1.800625 2.1725 0.91375 1.595 0 1 C0 0.67 0 0.34 0 0 Z " fill="#B0E7C1" transform="translate(753,215)"/>
<path d="M0 0 C2 2 2 2 2 5 C2.66 5 3.32 5 4 5 C4.66 8.63 5.32 12.26 6 16 C6.66 16 7.32 16 8 16 C10.13199815 19.55333025 10.43006662 22.93922465 11 27 C11.37125 27.9075 11.7425 28.815 12.125 29.75 C13 32 13 32 12 35 C0 4.49855908 0 4.49855908 0 0 Z " fill="#AFE6B6" transform="translate(921,509)"/>
<path d="M0 0 C0.99 0 1.98 0 3 0 C3 0.99 3 1.98 3 3 C0.14667695 4.61622915 -1.8866689 5.24954632 -5.16015625 5.23046875 C-6.34387817 5.22853516 -6.34387817 5.22853516 -7.55151367 5.2265625 C-8.38013916 5.21367188 -9.20876465 5.20078125 -10.0625 5.1875 C-11.33154175 5.17783203 -11.33154175 5.17783203 -12.6262207 5.16796875 C-18.78443695 5.09260288 -24.88579879 4.76942757 -31 4 C-31 3.67 -31 3.34 -31 3 C-29.69796631 2.970271 -29.69796631 2.970271 -28.36962891 2.93994141 C-25.15273733 2.86190128 -21.93622955 2.77521119 -18.71972656 2.68261719 C-17.32691428 2.64430673 -15.93400235 2.60945741 -14.54101562 2.578125 C-12.54013692 2.53252093 -10.53957854 2.47348377 -8.5390625 2.4140625 C-7.33459473 2.3826416 -6.13012695 2.3512207 -4.88916016 2.31884766 C-1.8739982 2.29084774 -1.8739982 2.29084774 0 0 Z " fill="#27202B" transform="translate(821,726)"/>
<path d="M0 0 C4.03809068 4.61496078 6 9.92852877 6 16 C6.66 16 7.32 16 8 16 C8.61643836 24.01369863 8.61643836 24.01369863 6.4375 27.5 C3.31649437 29.42061885 0.6219058 29.72139186 -3 30 C-2.4225 29.7525 -1.845 29.505 -1.25 29.25 C1.46223549 27.7432025 3.11751924 26.48756387 5 24 C5.44619364 18.63911469 4.43897812 14.7267105 2.5 9.75 C0 3.27777778 0 3.27777778 0 0 Z " fill="#B3EBB8" transform="translate(705,383)"/>
<path d="M0 0 C0.68707555 2.49064888 1 4.37886292 1 7 C0.01 7.66 -0.98 8.32 -2 9 C-3.18695553 12.56086658 -3.35095418 15.97331024 -3.5625 19.6875 C-3.60568359 20.38939453 -3.64886719 21.09128906 -3.69335938 21.81445312 C-3.7991736 23.54275206 -3.90006581 25.2713511 -4 27 C-6.99477183 22.50784226 -6.46427043 18.2687659 -6 13 C-4.92239731 8.12126453 -3.4207472 3.74653265 0 0 Z " fill="#141716" transform="translate(86,305)"/>
<path d="M0 0 C4.73789165 1.44323469 8.98858151 3.37226733 13.375 5.625 C14.01566406 5.94984375 14.65632812 6.2746875 15.31640625 6.609375 C16.87947501 7.40257407 18.44000622 8.20077031 20 9 C20 9.33 20 9.66 20 10 C17.1875 10.6875 17.1875 10.6875 14 11 C12.125 9.5625 12.125 9.5625 11 8 C11 8.66 11 9.32 11 10 C9.68 9.67 8.36 9.34 7 9 C7 8.01 7 7.02 7 6 C6.34 5.67 5.68 5.34 5 5 C3.31337542 3.35353315 1.64488294 1.68816933 0 0 Z " fill="#A4E678" transform="translate(153,405)"/>
<path d="M0 0 C0.99 0.33 1.98 0.66 3 1 C1.33333333 2.66666667 -0.33333333 4.33333333 -2 6 C-2.825 6.886875 -3.65 7.77375 -4.5 8.6875 C-6.98803754 10.98893473 -8.74695814 12.1207995 -12 13 C-12.66 12.67 -13.32 12.34 -14 12 C-14 12.66 -14 13.32 -14 14 C-15.32 13.67 -16.64 13.34 -18 13 C-17.03578125 12.39671875 -16.0715625 11.7934375 -15.078125 11.171875 C-13.80191031 10.36485689 -12.52587824 9.55754992 -11.25 8.75 C-10.29867187 8.15638672 -10.29867187 8.15638672 -9.328125 7.55078125 C-5.81799859 5.32038843 -2.81965894 3.10447297 0 0 Z " fill="#ADE8AC" transform="translate(661,387)"/>
<path d="M0 0 C2.30357276 3.45535914 3.40886113 6.95083096 4.625 10.875 C4.85445312 11.58269531 5.08390625 12.29039062 5.3203125 13.01953125 C6.49908133 16.78738163 7.29785007 20.00253855 7 24 C6.67 23.34 6.34 22.68 6 22 C5.34 22 4.68 22 4 22 C4.33 20.35 4.66 18.7 5 17 C4.34 17 3.68 17 3 17 C3 16.34 3 15.68 3 15 C2.34 14.67 1.68 14.34 1 14 C1.33 12.35 1.66 10.7 2 9 C1.34 9 0.68 9 0 9 C-0.87890625 2.84765625 -0.87890625 2.84765625 -1 1 C-0.67 0.67 -0.34 0.34 0 0 Z " fill="#ABE4B5" transform="translate(847,380)"/>
<path d="M0 0 C1.15957207 3.47871621 0.77456651 4.34219645 -0.4375 7.6875 C-0.72496094 8.49574219 -1.01242187 9.30398438 -1.30859375 10.13671875 C-1.53675781 10.75160156 -1.76492188 11.36648438 -2 12 C-1.34 11.67 -0.68 11.34 0 11 C-0.33 12.32 -0.66 13.64 -1 15 C-1.66 15 -2.32 15 -3 15 C-3.33 15.99 -3.66 16.98 -4 18 C-5 19 -6 20 -7 21 C-8.03357147 22.64605826 -9.04060332 24.30963442 -10 26 C-10.33 25.34 -10.66 24.68 -11 24 C-10.00654382 21.76697463 -8.96088298 19.65155182 -7.8125 17.5 C-4.84866839 11.78525359 -2.24154652 6.04242974 0 0 Z " fill="#ACE2AA" transform="translate(934,641)"/>
<path d="M0 0 C2.5 1.375 2.5 1.375 5 3 C5 3.66 5 4.32 5 5 C5.66 5 6.32 5 7 5 C7 5.66 7 6.32 7 7 C7.66 7 8.32 7 9 7 C9.144375 7.928125 9.28875 8.85625 9.4375 9.8125 C9.92100111 13.00725111 9.92100111 13.00725111 11 16 C11.66 16 12.32 16 13 16 C13.33 17.98 13.66 19.96 14 22 C10.63845958 17.93944767 7.67215882 13.69149091 4.75 9.3125 C4.29109375 8.63638672 3.8321875 7.96027344 3.359375 7.26367188 C0 2.23960658 0 2.23960658 0 0 Z " fill="#AAE5BD" transform="translate(823,235)"/>
<path d="M0 0 C0.33 0 0.66 0 1 0 C1.125 6.75 1.125 6.75 0 9 C0.99 8.67 1.98 8.34 3 8 C2.39009109 11.55780196 1.4216319 14.6828589 0 18 C-0.66 18 -1.32 18 -2 18 C-2.33 18.66 -2.66 19.32 -3 20 C-2.51358785 13.15182898 -1.64006048 6.66957927 0 0 Z " fill="#A7E4A8" transform="translate(940,614)"/>
<path d="M0 0 C0.33 0.66 0.66 1.32 1 2 C-2.26361594 3.53668415 -5.53690088 5.05154852 -8.8125 6.5625 C-9.74126953 7.00013672 -10.67003906 7.43777344 -11.62695312 7.88867188 C-12.51962891 8.29794922 -13.41230469 8.70722656 -14.33203125 9.12890625 C-15.56530151 9.70233765 -15.56530151 9.70233765 -16.82348633 10.28735352 C-19 11 -19 11 -22 10 C-20.02 9.34 -18.04 8.68 -16 8 C-16 7.34 -16 6.68 -16 6 C-14.68 5.67 -13.36 5.34 -12 5 C-12 4.34 -12 3.68 -12 3 C-11.30132812 2.86722656 -10.60265625 2.73445313 -9.8828125 2.59765625 C-8.51769531 2.33275391 -8.51769531 2.33275391 -7.125 2.0625 C-5.76761719 1.80146484 -5.76761719 1.80146484 -4.3828125 1.53515625 C-2.00043683 1.10036299 -2.00043683 1.10036299 0 0 Z " fill="#B6E897" transform="translate(188,258)"/>
<path d="M0 0 C0.66 0 1.32 0 2 0 C0.41332422 3.90285767 -2.13350481 6.33520982 -5.125 9.25 C-6.03507812 10.14203125 -6.94515625 11.0340625 -7.8828125 11.953125 C-8.58148438 12.62859375 -9.28015625 13.3040625 -10 14 C-10.99 13.67 -11.98 13.34 -13 13 C-12.34 11.02 -11.68 9.04 -11 7 C-10.236875 7.0825 -9.47375 7.165 -8.6875 7.25 C-5.86943434 7.30563488 -5.86943434 7.30563488 -4.375 5.0625 C-3.92125 4.381875 -3.4675 3.70125 -3 3 C-2.01 2.67 -1.02 2.34 0 2 C0 1.34 0 0.68 0 0 Z " fill="#A8E4A8" transform="translate(510,211)"/>
<path d="M0 0 C1.41152344 0.07250977 1.41152344 0.07250977 2.8515625 0.14648438 C3.83640625 0.20255859 4.82125 0.25863281 5.8359375 0.31640625 C6.82851563 0.36861328 7.82109375 0.42082031 8.84375 0.47460938 C11.29978318 0.60449574 13.7554311 0.73946789 16.2109375 0.87890625 C16.2109375 1.20890625 16.2109375 1.53890625 16.2109375 1.87890625 C15.23511719 1.92789062 14.25929688 1.976875 13.25390625 2.02734375 C11.98160156 2.10210937 10.70929687 2.176875 9.3984375 2.25390625 C7.50158203 2.35832031 7.50158203 2.35832031 5.56640625 2.46484375 C2.08338516 2.63993564 2.08338516 2.63993564 -0.7890625 4.87890625 C-3.4765625 5.00390625 -3.4765625 5.00390625 -5.7890625 4.87890625 C-6.1190625 3.55890625 -6.4490625 2.23890625 -6.7890625 0.87890625 C-4.28805676 -0.37159662 -2.78563198 -0.15102824 0 0 Z " fill="#AEEAAD" transform="translate(618.7890625,402.12109375)"/>
<path d="M0 0 C-2.31 0.66 -4.62 1.32 -7 2 C-7 2.66 -7 3.32 -7 4 C-8.57725347 4.70133599 -10.16211333 5.385583 -11.75 6.0625 C-12.63171875 6.44535156 -13.5134375 6.82820312 -14.421875 7.22265625 C-17.15256309 8.04600008 -18.36901347 7.9773992 -21 7 C-19.10545176 6.03912864 -17.20930419 5.08141031 -15.3125 4.125 C-14.25675781 3.59132812 -13.20101562 3.05765625 -12.11328125 2.5078125 C-3.92991518 -1.45552414 -3.92991518 -1.45552414 0 0 Z " fill="#A9E3B1" transform="translate(596,203)"/>
<path d="M0 0 C0.99 0 1.98 0 3 0 C3.144375 1.11375 3.28875 2.2275 3.4375 3.375 C3.78372035 6.82142047 3.78372035 6.82142047 5 9 C5.04022391 11.3329866 5.04320247 13.66706666 5 16 C5.66 16 6.32 16 7 16 C7 18.64 7 21.28 7 24 C5.25041441 21.37562161 4.5251318 19.81796628 3.7109375 16.875 C3.49179687 16.08609375 3.27265625 15.2971875 3.046875 14.484375 C2.82515625 13.66453125 2.6034375 12.8446875 2.375 12 C2.14554688 11.18015625 1.91609375 10.3603125 1.6796875 9.515625 C0 3.39676339 0 3.39676339 0 0 Z " fill="#ADE8C0" transform="translate(852,290)"/>
<path d="M0 0 C0 0.66 0 1.32 0 2 C-3.63719605 4.42479736 -5.85703482 4.38662577 -10.1875 4.625 C-11.45980469 4.69976562 -12.73210938 4.77453125 -14.04296875 4.8515625 C-15.01878906 4.90054688 -15.99460937 4.94953125 -17 5 C-17.33 4.34 -17.66 3.68 -18 3 C-17.34 2.34 -16.68 1.68 -16 1 C-13.525 1.99 -13.525 1.99 -11 3 C-11 2.34 -11 1.68 -11 1 C-3.57142857 -1.42857143 -3.57142857 -1.42857143 0 0 Z " fill="#99D8A7" transform="translate(645,155)"/>
<path d="M0 0 C0.66 0.33 1.32 0.66 2 1 C1.38511719 1.39832031 0.77023437 1.79664063 0.13671875 2.20703125 C-0.67152344 2.73683594 -1.47976563 3.26664063 -2.3125 3.8125 C-3.11300781 4.33457031 -3.91351562 4.85664062 -4.73828125 5.39453125 C-6.73381482 6.8110499 -8.29812646 8.25998924 -10 10 C-13 12 -13 12 -16 12 C-16 11.34 -16 10.68 -16 10 C-15.01 9.67 -14.02 9.34 -13 9 C-12.86335938 8.35289062 -12.72671875 7.70578125 -12.5859375 7.0390625 C-12.39257812 6.36617187 -12.19921875 5.69328125 -12 5 C-10.0390625 4.0234375 -10.0390625 4.0234375 -7.625 3.375 C-4.51757485 2.51463799 -2.74876969 1.83251313 0 0 Z " fill="#A3E478" transform="translate(520,851)"/>
<path d="M0 0 C2.95673278 2.36301133 3.92201993 3.6118923 4.6796875 7.3828125 C4.74414062 8.61773438 4.80859375 9.85265625 4.875 11.125 C4.95492187 12.36507812 5.03484375 13.60515625 5.1171875 14.8828125 C5 18 5 18 3 20 C2.49395076 17.60530271 1.99500483 15.20948283 1.5 12.8125 C1.28537109 11.80219727 1.28537109 11.80219727 1.06640625 10.77148438 C0.31930158 7.12490207 -0.17352282 3.72351043 0 0 Z " fill="#AAE7AE" transform="translate(937,554)"/>
<path d="M0 0 C0.33 0.99 0.66 1.98 1 3 C3.00016466 4.20882096 3.00016466 4.20882096 5 5 C5 5.66 5 6.32 5 7 C6.98 7.66 8.96 8.32 11 9 C8 10 8 10 4.64453125 8.56640625 C3.3619696 7.90851193 2.08475943 7.24010257 0.8125 6.5625 C0.15830078 6.22412109 -0.49589844 5.88574219 -1.16992188 5.53710938 C-2.78459299 4.70030902 -4.39292763 3.85130254 -6 3 C-2.25 0 -2.25 0 0 0 Z " fill="#ABE197" transform="translate(573,625)"/>
<path d="M0 0 C3.96 0 7.92 0 12 0 C7.5526288 4.4473712 3.75991005 5.11632262 -2.375 5.125 C-3.91690094 5.09316134 -5.45874525 5.05482724 -7 5 C-7 4.67 -7 4.34 -7 4 C-3.535 3.505 -3.535 3.505 0 3 C0 2.01 0 1.02 0 0 Z " fill="#ACE6AD" transform="translate(886,568)"/>
<path d="M0 0 C0.66 0.33 1.32 0.66 2 1 C1.979375 2.11375 1.95875 3.2275 1.9375 4.375 C1.73619282 7.83215921 1.73619282 7.83215921 3 10 C3.04022391 12.3329866 3.04320247 14.66706666 3 17 C0.83900627 14.83900627 0.28436284 13.4789582 -0.6875 10.625 C-0.95949219 9.85414063 -1.23148438 9.08328125 -1.51171875 8.2890625 C-2.21261824 5.00324568 -1.47383273 2.94766546 0 0 Z " fill="#A7E6B4" transform="translate(878,376)"/>
<path d="M0 0 C0.66 0.33 1.32 0.66 2 1 C3.54613014 0.91348369 5.08909387 0.75997364 6.625 0.5625 C7.44226563 0.46066406 8.25953125 0.35882813 9.1015625 0.25390625 C9.72804688 0.17011719 10.35453125 0.08632813 11 0 C8.29954818 1.80030122 5.93322119 2.93377066 2.9375 4.125 C1.62072266 4.65480469 1.62072266 4.65480469 0.27734375 5.1953125 C-2 6 -2 6 -4 6 C-4.33 6.66 -4.66 7.32 -5 8 C-5.66 7.67 -6.32 7.34 -7 7 C-6.67 5.68 -6.34 4.36 -6 3 C-4.35 3.33 -2.7 3.66 -1 4 C-0.67 2.68 -0.34 1.36 0 0 Z " fill="#A4E779" transform="translate(103,288)"/>
<path d="M0 0 C2.80515429 1.40257715 3.03174952 3.38110199 4.00195312 6.22460938 C4.34129883 7.25811523 4.34129883 7.25811523 4.6875 8.3125 C4.92533203 8.98990234 5.16316406 9.66730469 5.40820312 10.36523438 C7.46696479 16.54151937 7.46696479 16.54151937 6 20 C5.67 18.02 5.34 16.04 5 14 C4.01 13.67 3.02 13.34 2 13 C2 10.69 2 8.38 2 6 C1.34 6 0.68 6 0 6 C0 4.02 0 2.04 0 0 Z " fill="#ACE7B3" transform="translate(879,482)"/>
<path d="M0 0 C1.77226453 0.28284018 3.542788 0.57660498 5.3125 0.875 C6.29863281 1.03742188 7.28476563 1.19984375 8.30078125 1.3671875 C11 2 11 2 14 4 C12.35 4 10.7 4 9 4 C9 4.66 9 5.32 9 6 C7.68 6 6.36 6 5 6 C5 5.34 5 4.68 5 4 C4.360625 3.896875 3.72125 3.79375 3.0625 3.6875 C2.381875 3.460625 1.70125 3.23375 1 3 C0.67 2.01 0.34 1.02 0 0 Z " fill="#B2EA8C" transform="translate(203,425)"/>
<path d="M0 0 C0.99 0.66 1.98 1.32 3 2 C0.525 3.485 0.525 3.485 -2 5 C-2.33 4.34 -2.66 3.68 -3 3 C-5.31 3.66 -7.62 4.32 -10 5 C-10 3.35 -10 1.7 -10 0 C-6.25105057 -1.24964981 -3.84864723 -0.75598428 0 0 Z " fill="#92D296" transform="translate(706,411)"/>
<path d="M0 0 C0.66 0.33 1.32 0.66 2 1 C0.1875 3 0.1875 3 -2 5 C-2.99 5 -3.98 5 -5 5 C-5 5.66 -5 6.32 -5 7 C-5.66 7 -6.32 7 -7 7 C-7.33 7.99 -7.66 8.98 -8 10 C-8.99 9.34 -9.98 8.68 -11 8 C-11 7.34 -11 6.68 -11 6 C-9.21385682 4.96953278 -7.42089982 3.95086764 -5.625 2.9375 C-4.62726562 2.36902344 -3.62953125 1.80054688 -2.6015625 1.21484375 C-1.74304688 0.81394531 -0.88453125 0.41304687 0 0 Z " fill="#A7E2AB" transform="translate(572,211)"/>
<path d="M0 0 C2.4586551 1.22932755 3.76877727 2.33038968 4.67578125 4.95703125 C5.19823287 7.29809308 5.62792263 9.63045463 6 12 C6.11214844 12.70769531 6.22429688 13.41539062 6.33984375 14.14453125 C6.58004819 15.76015289 6.79316196 17.3797687 7 19 C4.3458221 15.84388587 3.07732936 12.84829424 1.8125 8.9375 C1.46832031 7.89464844 1.12414062 6.85179687 0.76953125 5.77734375 C0 3 0 3 0 0 Z " fill="#AAE6B7" transform="translate(885,406)"/>
<path d="M0 0 C1.65 0.33 3.3 0.66 5 1 C1.28249221 5.20240011 -3.31660979 7.99782679 -8 11 C-10 10 -10 10 -11 8 C-9.6078125 7.566875 -9.6078125 7.566875 -8.1875 7.125 C-4.79341092 5.92708621 -2.60592581 5.08428829 -0.8125 1.875 C-0.544375 1.25625 -0.27625 0.6375 0 0 Z " fill="#AEE6AD" transform="translate(582,328)"/>
<path d="M0 0 C0.99 0 1.98 0 3 0 C3.33 2.64 3.66 5.28 4 8 C4.66 8 5.32 8 6 8 C5.34 10.31 4.68 12.62 4 15 C0.57974684 11.57974684 0.04655199 7.28017975 -0.125 2.5625 C-0.08375 1.716875 -0.0425 0.87125 0 0 Z " fill="#A2E3A7" transform="translate(933,538)"/>
<path d="M0 0 C2 1 2 1 3.10546875 4.23828125 C3.47473728 5.59404331 3.83503685 6.95227218 4.1875 8.3125 C4.37763672 8.98990234 4.56777344 9.66730469 4.76367188 10.36523438 C5.69044331 13.86371107 6.38570259 16.56663499 5 20 C5 19.01 5 18.02 5 17 C4.34 17 3.68 17 3 17 C2.49622232 14.73000175 1.99709981 12.45896997 1.5 10.1875 C1.08234375 8.29064453 1.08234375 8.29064453 0.65625 6.35546875 C0 3 0 3 0 0 Z " fill="#ACE5BB" transform="translate(827,314)"/>
<path d="M0 0 C5.54050113 0.56825653 10.03715966 2.62886517 15 5 C14.01 5.33 13.02 5.66 12 6 C11.34 5.67 10.68 5.34 10 5 C9.67 5.99 9.34 6.98 9 8 C7.68 7.67 6.36 7.34 5 7 C5 6.34 5 5.68 5 5 C5.66 4.67 6.32 4.34 7 4 C4.69 3.01 2.38 2.02 0 1 C0 0.67 0 0.34 0 0 Z " fill="#AFE69D" transform="translate(734,744)"/>
<path d="M0 0 C0.66 0 1.32 0 2 0 C2.05429959 1.74965358 2.09292823 3.49979787 2.125 5.25 C2.14820313 6.22453125 2.17140625 7.1990625 2.1953125 8.203125 C1.99862781 11.0196498 1.44568916 12.60949036 0 15 C-1.69787432 12.40325104 -2.02157276 11.20278391 -1.6875 8.0625 C-1.460625 7.051875 -1.23375 6.04125 -1 5 C-0.814375 4.05125 -0.62875 3.1025 -0.4375 2.125 C-0.293125 1.42375 -0.14875 0.7225 0 0 Z " fill="#9ADE9E" transform="translate(942,567)"/>
<path d="M0 0 C2.31 0.33 4.62 0.66 7 1 C4.55436688 3.44563312 2.24474828 4.34131255 -0.9375 5.6875 C-1.99839844 6.14511719 -3.05929687 6.60273438 -4.15234375 7.07421875 C-7 8 -7 8 -10 7 C-4.25 4 -4.25 4 -2 4 C-1.34 2.68 -0.68 1.36 0 0 Z " fill="#AFE6AF" transform="translate(599,320)"/>
<path d="M0 0 C0.268125 0.639375 0.53625 1.27875 0.8125 1.9375 C1.88667752 4.33131686 1.88667752 4.33131686 5 5 C6.25 11.625 6.25 11.625 4 15 C3.32779649 13.06441401 2.66241923 11.12645628 2 9.1875 C1.62875 8.10855469 1.2575 7.02960938 0.875 5.91796875 C0 3 0 3 0 0 Z " fill="#AAE8B9" transform="translate(871,362)"/>
<path d="M0 0 C1.13824219 0.10699219 2.27648437 0.21398437 3.44921875 0.32421875 C4.57972656 0.42347656 5.71023438 0.52273438 6.875 0.625 C9.67660531 0.95716638 12.38307452 1.40726026 15.13671875 2.01171875 C15.13671875 2.34171875 15.13671875 2.67171875 15.13671875 3.01171875 C14.11191406 3.00011719 13.08710937 2.98851562 12.03125 2.9765625 C10.67057475 2.96717853 9.30989751 2.95807898 7.94921875 2.94921875 C7.27568359 2.94083984 6.60214844 2.93246094 5.90820312 2.92382812 C2.18237744 2.90565337 -1.24208545 3.11872483 -4.86328125 4.01171875 C-4.86328125 0.44540494 -3.29824839 0.01349897 0 0 Z " fill="#0F1710" transform="translate(800.86328125,662.98828125)"/>
<path d="M0 0 C0.66 0 1.32 0 2 0 C2.33 4.62 2.66 9.24 3 14 C2.01 14.33 1.02 14.66 0 15 C0 10.05 0 5.1 0 0 Z " fill="#B2E6B2" transform="translate(895,647)"/>
<path d="M0 0 C2.15473199 1.5801368 4.10646634 3.10646634 6 5 C5.68834559 7.00349261 5.35236497 9.00326516 5 11 C5.36858988 13.76864953 5.36858988 13.76864953 6 16 C4 15 4 15 2.9296875 12.3828125 C2.58164062 11.30773437 2.23359375 10.23265625 1.875 9.125 C1.52179687 8.05507813 1.16859375 6.98515625 0.8046875 5.8828125 C0 3 0 3 0 0 Z " fill="#ADE7B5" transform="translate(915,492)"/>
<path d="M0 0 C7.72772107 -0.13690844 15.30881404 0.24833087 23 1 C23 1.33 23 1.66 23 2 C17.06 2.33 11.12 2.66 5 3 C5 2.34 5 1.68 5 1 C3.35 1 1.7 1 0 1 C0 0.67 0 0.34 0 0 Z " fill="#C5F4A5" transform="translate(250,435)"/>
<path d="M0 0 C0.66 0.33 1.32 0.66 2 1 C0.25447936 2.15264553 -1.49660196 3.29687327 -3.25 4.4375 C-4.22453125 5.07558594 -5.1990625 5.71367187 -6.203125 6.37109375 C-8.58381615 7.7576136 -10.31780307 8.546581 -13 9 C-12.525625 8.38125 -12.05125 7.7625 -11.5625 7.125 C-9.97582559 5.09294454 -9.97582559 5.09294454 -9 3 C-6.68152126 2.2833793 -4.34680297 1.61757973 -2 1 C-1.34 0.67 -0.68 0.34 0 0 Z " fill="#121713" transform="translate(394,400)"/>
<path d="M0 0 C3.80666984 1.44390925 5.26602582 3.34952803 7 7 C6.67 7.66 6.34 8.32 6 9 C3 7.3125 3 7.3125 0 5 C-0.375 2.25 -0.375 2.25 0 0 Z " fill="#A3E2B3" transform="translate(800,259)"/>
<path d="M0 0 C0.99 0.33 1.98 0.66 3 1 C1.37982158 2.33918806 -0.24629343 3.6711969 -1.875 5 C-3.23238281 6.11375 -3.23238281 6.11375 -4.6171875 7.25 C-7 9 -7 9 -9 9 C-9.33 10.32 -9.66 11.64 -10 13 C-10 11.02 -10 9.04 -10 7 C-9.0925 6.5875 -8.185 6.175 -7.25 5.75 C-4.20334382 4.10949282 -2.28873194 2.55281639 0 0 Z " fill="#A2E29D" transform="translate(907,687)"/>
<path d="M0 0 C3.57011026 3.732388 4.10913442 8.0949989 5 13 C0.24390244 8.73170732 0.24390244 8.73170732 -0.875 5.375 C-1 3 -1 3 0 0 Z " fill="#B0E798" transform="translate(489,591)"/>
<path d="M0 0 C3.08351902 2.05567935 5.42215154 4.35247996 8 7 C5.2824717 6.53413801 2.97158472 5.987525 0.4375 4.875 C-2.24749062 3.91115721 -3.37141956 4.02645169 -6 5 C-3.375 1.125 -3.375 1.125 0 0 Z " fill="#9ADF9A" transform="translate(664,388)"/>
<path d="M0 0 C2.25693432 2.25693432 2.87292007 4.04141517 4 7 C4.37125 7.70125 4.7425 8.4025 5.125 9.125 C6 11 6 11 6 14 C5.01 14.33 4.02 14.66 3 15 C2.49363393 13.25183142 1.99515381 11.50137737 1.5 9.75 C1.2215625 8.77546875 0.943125 7.8009375 0.65625 6.796875 C0 4 0 4 0 0 Z " fill="#262529" transform="translate(853,304)"/>
<path d="M0 0 C0.99 0.33 1.98 0.66 3 1 C2.01 2.485 2.01 2.485 1 4 C-2.25 4.625 -2.25 4.625 -6 5 C-8.00097458 5.3274322 -10.00133314 5.65876419 -12 6 C-11.67 5.01 -11.34 4.02 -11 3 C-10.28972656 2.86722656 -9.57945312 2.73445313 -8.84765625 2.59765625 C-7.92855469 2.42105469 -7.00945312 2.24445313 -6.0625 2.0625 C-4.68771484 1.80146484 -4.68771484 1.80146484 -3.28515625 1.53515625 C-1.04710156 1.22285012 -1.04710156 1.22285012 0 0 Z " fill="#A2E379" transform="translate(140,277)"/>
<path d="M0 0 C0.33 0.99 0.66 1.98 1 3 C-1.84239669 6.26349249 -3.67324631 7.55623039 -8 8 C-8.99 8 -9.98 8 -11 8 C-7.85214347 4.5823272 -5.41881673 2.47293891 -1 1 C-0.67 0.67 -0.34 0.34 0 0 Z " fill="#A5E5A6" transform="translate(543,231)"/>
<path d="M0 0 C0 3 0 3 -1.4609375 4.68359375 C-2.09257813 5.26238281 -2.72421875 5.84117187 -3.375 6.4375 C-5.94582115 8.80202068 -7.60084869 10.78477855 -9 14 C-9.99 13.67 -10.98 13.34 -12 13 C-10.56354149 11.39490066 -9.12579294 9.79095576 -7.6875 8.1875 C-6.88699219 7.29417969 -6.08648438 6.40085937 -5.26171875 5.48046875 C-3.54775419 3.60073214 -1.82122396 1.77407253 0 0 Z " fill="#B8EEA3" transform="translate(644,735)"/>
<path d="M0 0 C1 3 1 3 0 6 C0.33 6.99 0.66 7.98 1 9 C0.319375 9.6496875 0.319375 9.6496875 -0.375 10.3125 C-2.20024334 12.10798342 -2.20024334 12.10798342 -4 15 C-3.50341703 9.33895411 -2.45489316 5.12325529 0 0 Z " fill="#AFE7AA" transform="translate(491,299)"/>
<path d="M0 0 C2 1 2 1 4 3 C4 3.99 4 4.98 4 6 C4.99 6 5.98 6 7 6 C9.1875 9 9.1875 9 11 12 C6.37633404 10.04383363 2.20725037 7.03037563 -0.375 2.6875 C-0.58125 2.130625 -0.7875 1.57375 -1 1 C-0.67 0.67 -0.34 0.34 0 0 Z " fill="#A4E0B9" transform="translate(783,192)"/>
<path d="M0 0 C0.66 0.33 1.32 0.66 2 1 C-1.96 3.64 -5.92 6.28 -10 9 C-10.66 8.67 -11.32 8.34 -12 8 C-9.53350517 3.79245 -6.45310178 2.70027523 -2 1 C-1.34 0.67 -0.68 0.34 0 0 Z " fill="#ACE3B0" transform="translate(541,189)"/>
<path d="M0 0 C0 1.98 0 3.96 0 6 C-1.32 6.33 -2.64 6.66 -4 7 C-4.33 6.34 -4.66 5.68 -5 5 C-5.99 5 -6.98 5 -8 5 C-2.25 0 -2.25 0 0 0 Z " fill="#A1E577" transform="translate(559,825)"/>
<path d="M0 0 C0.66 0.33 1.32 0.66 2 1 C0.515 2.485 0.515 2.485 -1 4 C-0.67 4.99 -0.34 5.98 0 7 C-0.7425 7.28875 -1.485 7.5775 -2.25 7.875 C-4.56900199 8.82368263 -6.76932676 9.86559779 -9 11 C-8.06558465 9.72689688 -7.12732889 8.456612 -6.1875 7.1875 C-5.66542969 6.47980469 -5.14335938 5.77210938 -4.60546875 5.04296875 C-3.16871123 3.21468607 -1.68184237 1.60103312 0 0 Z " fill="#ADEB89" transform="translate(574,809)"/>
<path d="M0 0 C1.32 0 2.64 0 4 0 C2.68775452 3.93673644 1.08089673 6.22719294 -2 9 C-2.33 7.02 -2.66 5.04 -3 3 C-2.34 3 -1.68 3 -1 3 C-0.67 2.01 -0.34 1.02 0 0 Z " fill="#B0E98B" transform="translate(515,784)"/>
<path d="M0 0 C2.0343459 1.41519715 2.90410393 2.54982123 3.421875 4.98046875 C3.66273952 6.98176954 3.83532741 8.9909944 4 11 C3.01 10.67 2.02 10.34 1 10 C-1.28070175 3.84210526 -1.28070175 3.84210526 0 0 Z " fill="#9EE2A8" transform="translate(905,460)"/>
<path d="M0 0 C2.66661156 2.23651292 3.8886778 3.61832387 4.875 7 C5.0040057 10.0961367 4.67059759 11.44496838 3 14 C3 13.01 3 12.02 3 11 C2.34 10.67 1.68 10.34 1 10 C0.5859375 7.71484375 0.5859375 7.71484375 0.375 4.9375 C0.30023437 4.01839844 0.22546875 3.09929687 0.1484375 2.15234375 C0.09945312 1.44207031 0.05046875 0.73179687 0 0 Z " fill="#242327" transform="translate(864,347)"/>
<path d="M0 0 C1.9453125 0.77734375 1.9453125 0.77734375 4.125 1.9375 C5.21167969 2.50791016 5.21167969 2.50791016 6.3203125 3.08984375 C6.87460937 3.39019531 7.42890625 3.69054687 8 4 C8 4.99 8 5.98 8 7 C7.4225 6.67 6.845 6.34 6.25 6 C3.80116138 4.72924102 3.80116138 4.72924102 0 5 C0 4.34 0 3.68 0 3 C-0.66 3 -1.32 3 -2 3 C-2 2.34 -2 1.68 -2 1 C-1.34 0.67 -0.68 0.34 0 0 Z " fill="#9FE0B0" transform="translate(746,210)"/>
<path d="M0 0 C1.258125 -0.04125 2.51625 -0.0825 3.8125 -0.125 C4.52019531 -0.14820313 5.22789062 -0.17140625 5.95703125 -0.1953125 C8 0 8 0 11 2 C11 2.66 11 3.32 11 4 C11.66 4.33 12.32 4.66 13 5 C8.15340923 4.40895235 4.39251833 3.02055843 0 1 C0 0.67 0 0.34 0 0 Z " fill="#A7E2BB" transform="translate(725,165)"/>
<path d="M0 0 C0.33 0.66 0.66 1.32 1 2 C-8.41002278 4.29612756 -8.41002278 4.29612756 -13 4 C-12.01 3.67 -11.02 3.34 -10 3 C-10 2.34 -10 1.68 -10 1 C-6.59437148 0.22157062 -3.49234244 -0.09978121 0 0 Z " fill="#ADE9B8" transform="translate(621,159)"/>
<path d="M0 0 C2 1 2 1 3.1875 4.3125 C3.90649268 7.57562063 4.20286847 8.99282882 3 12 C0.09828892 9.60293432 -0.63619251 7.72902676 -1 4 C-0.5625 1.6875 -0.5625 1.6875 0 0 Z " fill="#A8E3B4" transform="translate(841,363)"/>
<path d="M0 0 C2.73704754 2.73704754 3.16182449 5.26044774 4 9 C3.625 11.4375 3.625 11.4375 3 13 C3 12.34 3 11.68 3 11 C2.34 11 1.68 11 1 11 C0.4254048 7.26513121 0 3.78706732 0 0 Z " fill="#A9E3B6" transform="translate(837,349)"/>
<path d="M0 0 C0.66 0.33 1.32 0.66 2 1 C2 2.32 2 3.64 2 5 C1.34 5 0.68 5 0 5 C0.33 6.32 0.66 7.64 1 9 C-1 7.75 -1 7.75 -3 6 C-3 4.68 -3 3.36 -3 2 C-2.01 1.34 -1.02 0.68 0 0 Z " fill="#A2E1A7" transform="translate(686,344)"/>
<path d="M0 0 C0.66 0.33 1.32 0.66 2 1 C-7.22551253 8.85193622 -7.22551253 8.85193622 -13 9 C-12.01 8.34 -11.02 7.68 -10 7 C-7.82967524 5.56009377 -7.82967524 5.56009377 -6 4 C-6 3.34 -6 2.68 -6 2 C-4.7934375 1.7834375 -4.7934375 1.7834375 -3.5625 1.5625 C-1.07896294 1.25864751 -1.07896294 1.25864751 0 0 Z " fill="#B5E9B4" transform="translate(491,230)"/>
<path d="M0 0 C2.125 0.375 2.125 0.375 4 1 C3.6875 3.875 3.6875 3.875 3 7 C2.01 7.66 1.02 8.32 0 9 C0 7.68 0 6.36 0 5 C-0.66 4.01 -1.32 3.02 -2 2 C-1.34 1.34 -0.68 0.68 0 0 Z " fill="#A9E5A0" transform="translate(858,698)"/>
<path d="M0 0 C3 1 3 1 4 3 C5.97888961 3.72693904 7.97954558 4.39816251 10 5 C10 5.33 10 5.66 10 6 C5.28596212 5.52060632 1.33420699 5.03165952 -3 3 C-2.01 2.67 -1.02 2.34 0 2 C0 1.34 0 0.68 0 0 Z " fill="#ADE5A8" transform="translate(436,224)"/>
<path d="M0 0 C0 3 0 3 -1.49609375 4.82421875 C-2.13675781 5.43910156 -2.77742188 6.05398438 -3.4375 6.6875 C-4.07558594 7.31011719 -4.71367187 7.93273437 -5.37109375 8.57421875 C-7 10 -7 10 -8 10 C-8.1875 7.625 -8.1875 7.625 -8 5 C-5.67807281 3.45204854 -3.47761092 2.23880546 -1 1 C-0.67 0.67 -0.34 0.34 0 0 Z " fill="#BAF090" transform="translate(480,835)"/>
<path d="M0 0 C1.70840281 1.63412443 2.93453047 2.86906094 4 5 C4.99 5.33 5.98 5.66 7 6 C7 8.31 7 10.62 7 13 C0 4.25 0 4.25 0 0 Z " fill="#B1E9B4" transform="translate(697,368)"/>
<path d="M0 0 C4.29 0.33 8.58 0.66 13 1 C13 1.33 13 1.66 13 2 C4.585 2.495 4.585 2.495 -4 3 C-2.68 2.67 -1.36 2.34 0 2 C0 1.34 0 0.68 0 0 Z " fill="#121313" transform="translate(372,216)"/>
<path d="M0 0 C0.99 0 1.98 0 3 0 C2.39301257 4.12751449 0.96189209 7.3321148 -1 11 C-2.60080151 6.99799622 -1.29279692 3.95443764 0 0 Z " fill="#B3EA7E" transform="translate(456,857)"/>
<path d="M0 0 C9.59453303 5.0022779 9.59453303 5.0022779 13 9 C11.32986582 8.34206835 9.6642135 7.67276716 8 7 C6.14375 6.319375 6.14375 6.319375 4.25 5.625 C1 4 1 4 0.296875 1.8984375 C0.19890625 1.27195312 0.1009375 0.64546875 0 0 Z " fill="#B6EBB1" transform="translate(837,599)"/>
<path d="M0 0 C4.30764815 1.56641751 8.06171464 3.68336156 12 6 C10.02 6.99 10.02 6.99 8 8 C5.33333333 5.33333333 2.66666667 2.66666667 0 0 Z " fill="#B0E5AF" transform="translate(687,404)"/>
<path d="M0 0 C1.41791408 0.45445964 2.83428046 0.91374944 4.25 1.375 C5.43335938 1.75785156 5.43335938 1.75785156 6.640625 2.1484375 C8.86627958 2.95173667 10.90931672 3.89711662 13 5 C9.18510326 6.46726798 6.70988378 5.43336419 3 4 C3 3.34 3 2.68 3 2 C2.01 1.67 1.02 1.34 0 1 C0 0.67 0 0.34 0 0 Z " fill="#B3E9AF" transform="translate(563,363)"/>
<path d="M0 0 C0.33 0.99 0.66 1.98 1 3 C1.99 3.33 2.98 3.66 4 4 C4 7.3 4 10.6 4 14 C1.8553857 11.8553857 1.55435397 10.98260002 0.875 8.125 C0.70742188 7.44695312 0.53984375 6.76890625 0.3671875 6.0703125 C0 4 0 4 0 0 Z " fill="#AFE9BE" transform="translate(867,347)"/>
<path d="M0 0 C0.33 0 0.66 0 1 0 C1.05416188 1.60379341 1.09286638 3.20811406 1.125 4.8125 C1.14820313 5.70582031 1.17140625 6.59914063 1.1953125 7.51953125 C1 10 1 10 -1 13 C-1.22151549 11.20991533 -1.42682213 9.41781838 -1.625 7.625 C-1.74101563 6.62726562 -1.85703125 5.62953125 -1.9765625 4.6015625 C-1.98429688 3.74304688 -1.99203125 2.88453125 -2 2 C-1.34 1.34 -0.68 0.68 0 0 Z " fill="#8DD58F" transform="translate(942,606)"/>
<path d="M0 0 C1.32 0 2.64 0 4 0 C4 3.63 4 7.26 4 11 C1.6870518 8.6870518 1.50419025 7.52095125 0.875 4.375 C0.70742188 3.55773437 0.53984375 2.74046875 0.3671875 1.8984375 C0.24601563 1.27195312 0.12484375 0.64546875 0 0 Z " fill="#AFEABA" transform="translate(892,426)"/>
<path d="M0 0 C-1.70828921 2.10633718 -2.52148416 2.93801608 -5.26171875 3.29296875 C-6.06222656 3.25816406 -6.86273437 3.22335938 -7.6875 3.1875 C-8.89986328 3.14689453 -8.89986328 3.14689453 -10.13671875 3.10546875 C-11.05904297 3.05326172 -11.05904297 3.05326172 -12 3 C-11 1 -11 1 -9.375 0.375 C-6.2339425 -0.12095645 -3.17398169 -0.06103811 0 0 Z " fill="#141817" transform="translate(620,162)"/>
<path d="M0 0 C2.875 1 2.875 1 5 2 C5 2.33 5 2.66 5 3 C-1.93 2.505 -1.93 2.505 -9 2 C-5.49337515 -0.3377499 -4.12370255 -0.3298962 0 0 Z " fill="#B2EDC3" transform="translate(693,156)"/>
<path d="M0 0 C0.33 1.32 0.66 2.64 1 4 C-4.75 5.125 -4.75 5.125 -7 4 C-2.25 0 -2.25 0 0 0 Z " fill="#B0EA8C" transform="translate(543,835)"/>
<path d="M0 0 C0 3 0 3 -2.5 5.6875 C-3.325 6.450625 -4.15 7.21375 -5 8 C-5 6.02 -5 4.04 -5 2 C-3.35 1.34 -1.7 0.68 0 0 Z " fill="#B3E88B" transform="translate(494,818)"/>
<path d="M0 0 C0 3.6952982 -0.72136847 5.11373339 -3 8 C-6.1875 8.8125 -6.1875 8.8125 -9 9 C-6 6 -3 3 0 0 Z " fill="#0E100F" transform="translate(858,708)"/>
<path d="M0 0 C1.13199353 0.9080162 2.25532363 1.82683826 3.375 2.75 C4.00148438 3.26046875 4.62796875 3.7709375 5.2734375 4.296875 C7.08312318 6.08199481 8.00117455 7.67949644 9 10 C5.7318607 9.02839102 4.26960313 8.37551865 2.25 5.5625 C1 3 1 3 0 0 Z " fill="#B2E69B" transform="translate(517,642)"/>
<path d="M0 0 C2.65171634 1.6252455 3.83133 2.51808573 4.875 5.5 C5 8 5 8 3 11 C1.68 7.7 0.36 4.4 -1 1 C-0.67 0.67 -0.34 0.34 0 0 Z " fill="#99DDA1" transform="translate(870,458)"/>
<path d="M0 0 C1.9451 2.91765 2.45276317 4.62537285 3 8 C2.01 8.33 1.02 8.66 0 9 C-0.87890625 2.84765625 -0.87890625 2.84765625 -1 1 C-0.67 0.67 -0.34 0.34 0 0 Z " fill="#9BDAA6" transform="translate(847,380)"/>
<path d="M0 0 C0.99 0.33 1.98 0.66 3 1 C1.35 1.33 -0.3 1.66 -2 2 C-1.34 1.34 -0.68 0.68 0 0 Z M-2 3 C-5.18762365 5.12508244 -7.26512223 5.5020163 -11 6 C-11 5.34 -11 4.68 -11 4 C-5.375 1.875 -5.375 1.875 -2 3 Z " fill="#A1E76C" transform="translate(488,867)"/>
<path d="M0 0 C0.99 0 1.98 0 3 0 C2.57405412 1.44096586 2.13373367 2.87768712 1.6875 4.3125 C1.44386719 5.11300781 1.20023438 5.91351562 0.94921875 6.73828125 C0 9 0 9 -3 12 C-2.01 8.04 -1.02 4.08 0 0 Z " fill="#AFE8AA" transform="translate(863,646)"/>
<path d="M0 0 C0.33 0 0.66 0 1 0 C1.05422947 1.4370809 1.09289723 2.87475462 1.125 4.3125 C1.14820313 5.11300781 1.17140625 5.91351562 1.1953125 6.73828125 C1 9 1 9 -1 12 C-1.66 12 -2.32 12 -3 12 C-2.01 8.04 -1.02 4.08 0 0 Z " fill="#9CE19D" transform="translate(943,611)"/>
<path d="M0 0 C1.98 0.99 1.98 0.99 4 2 C4 4.97 4 7.94 4 11 C1.6870518 8.6870518 1.50419025 7.52095125 0.875 4.375 C0.70742188 3.55773437 0.53984375 2.74046875 0.3671875 1.8984375 C0.24601563 1.27195312 0.12484375 0.64546875 0 0 Z " fill="#101212" transform="translate(867,440)"/>
<path d="M0 0 C0.66 0.33 1.32 0.66 2 1 C2.59355614 3.64860427 2.74209269 6.29197322 3 9 C0.9375 7.3125 0.9375 7.3125 -1 5 C-0.75 2.25 -0.75 2.25 0 0 Z " fill="#A4E3AE" transform="translate(858,417)"/>
<path d="M0 0 C3.37503669 1.1858237 5.64722731 2.27573689 8 5 C5.03 4.505 5.03 4.505 2 4 C1.67 4.66 1.34 5.32 1 6 C0.67 4.02 0.34 2.04 0 0 Z " fill="#ADE7AA" transform="translate(597,394)"/>
<path d="M0 0 C1.07310858 3.27185553 0.89263102 5.42947592 0.0625 8.75 C-0.22947266 9.94882812 -0.22947266 9.94882812 -0.52734375 11.171875 C-0.68332031 11.77515625 -0.83929688 12.3784375 -1 13 C-1.66 12.34 -2.32 11.68 -3 11 C-3 9.68 -3 8.36 -3 7 C-2.34 7 -1.68 7 -1 7 C-0.67 4.69 -0.34 2.38 0 0 Z " fill="#0C130E" transform="translate(482,326)"/>
<path d="M0 0 C0.66 0.33 1.32 0.66 2 1 C1.4375 2.875 1.4375 2.875 0 5 C-3.625 6.25 -3.625 6.25 -7 7 C-4.66666667 4.66666667 -2.33333333 2.33333333 0 0 Z " fill="#B6EA96" transform="translate(561,820)"/>
<path d="M0 0 C0 3.52032428 -0.70351351 4.4385343 -3 7 C-3.66 7 -4.32 7 -5 7 C-5.33 5.68 -5.66 4.36 -6 3 C-5.195625 2.690625 -4.39125 2.38125 -3.5625 2.0625 C-1.10919595 1.23664655 -1.10919595 1.23664655 0 0 Z " fill="#141816" transform="translate(614,766)"/>
<path d="M0 0 C0.99 0.33 1.98 0.66 3 1 C4.1875 4.5625 4.1875 4.5625 5 8 C4.01 8 3.02 8 2 8 C0.74335022 5.09399739 0 3.20395416 0 0 Z " fill="#A7E7B1" transform="translate(896,438)"/>
<path d="M0 0 C0.99 0 1.98 0 3 0 C2.67 2.31 2.34 4.62 2 7 C1.01 7.33 0.02 7.66 -1 8 C-0.67 5.36 -0.34 2.72 0 0 Z " fill="#9BD595" transform="translate(482,330)"/>
<path d="M0 0 C0.99 0 1.98 0 3 0 C4 7.625 4 7.625 4 11 C3.34 10.67 2.68 10.34 2 10 C1.3671875 7.71484375 1.3671875 7.71484375 0.875 4.9375 C0.70742188 4.01839844 0.53984375 3.09929687 0.3671875 2.15234375 C0.24601563 1.44207031 0.12484375 0.73179687 0 0 Z " fill="#97D9A8" transform="translate(824,309)"/>
<path d="M0 0 C2.8125 -0.1875 2.8125 -0.1875 6 0 C6.99 0.99 7.98 1.98 9 3 C6.03 3 3.06 3 0 3 C0 2.01 0 1.02 0 0 Z " fill="#B3EFA7" transform="translate(373,213)"/>
<path d="M0 0 C0.99 0.66 1.98 1.32 3 2 C2.34 3.65 1.68 5.3 1 7 C-0.32 6.34 -1.64 5.68 -3 5 C-2.01 3.35 -1.02 1.7 0 0 Z " fill="#9ADB91" transform="translate(857,702)"/>
<path d="M0 0 C0.66 0.33 1.32 0.66 2 1 C1.01 3.97 0.02 6.94 -1 10 C-1.66 8.68 -2.32 7.36 -3 6 C-2.1875 3.875 -2.1875 3.875 -1 2 C-0.67 1.34 -0.34 0.68 0 0 Z " fill="#98DC93" transform="translate(898,696)"/>
<path d="M0 0 C0.66 0 1.32 0 2 0 C2.33 2.31 2.66 4.62 3 7 C2.01 7.495 2.01 7.495 1 8 C-0.35439668 5.29120665 -0.06501451 2.99066732 0 0 Z " fill="#99E1A2" transform="translate(925,514)"/>
<path d="M0 0 C0.66 0.99 1.32 1.98 2 3 C1.01 3.99 0.02 4.98 -1 6 C-1.66 5.67 -2.32 5.34 -3 5 C-3 3.68 -3 2.36 -3 1 C-2.01 0.67 -1.02 0.34 0 0 Z " fill="#99E09B" transform="translate(699,410)"/>
<path d="M0 0 C0.33 0.66 0.66 1.32 1 2 C1.66 2 2.32 2 3 2 C4.125 7.625 4.125 7.625 3 11 C2.49384702 9.73160474 1.99530901 8.46016898 1.5 7.1875 C1.2215625 6.47980469 0.943125 5.77210938 0.65625 5.04296875 C0 3 0 3 0 0 Z " fill="#B0E8BC" transform="translate(881,394)"/>
<path d="M0 0 C4.95 1.98 4.95 1.98 10 4 C9.67 4.66 9.34 5.32 9 6 C6.03 5.01 3.06 4.02 0 3 C0 2.01 0 1.02 0 0 Z " fill="#94E1A7" transform="translate(730,204)"/>
<path d="M0 0 C0.33 0.66 0.66 1.32 1 2 C-1.52788007 4.79872437 -3.20411134 6.45773019 -7 7 C-4.97117094 4.05819786 -2.94180214 2.02882906 0 0 Z " fill="#A8E2AB" transform="translate(550,182)"/>
<path d="M0 0 C0.66 0.33 1.32 0.66 2 1 C2 1.66 2 2.32 2 3 C3.65 2.67 5.3 2.34 7 2 C7 2.99 7 3.98 7 5 C4.36 5 1.72 5 -1 5 C-1.33 4.01 -1.66 3.02 -2 2 C-1.34 2 -0.68 2 0 2 C0 1.34 0 0.68 0 0 Z " fill="#96DCAB" transform="translate(724,161)"/>
<path d="M0 0 C0 0.99 0 1.98 0 3 C-3 5 -3 5 -5.1875 4.625 C-5.785625 4.41875 -6.38375 4.2125 -7 4 C-2.25 0 -2.25 0 0 0 Z " fill="#B3EB8A" transform="translate(536,840)"/>
<path d="M0 0 C0.66 0 1.32 0 2 0 C2.33 0.66 2.66 1.32 3 2 C4.65 1.67 6.3 1.34 8 1 C6.68 2.32 5.36 3.64 4 5 C2.68 4.34 1.36 3.68 0 3 C0 2.01 0 1.02 0 0 Z " fill="#151718" transform="translate(545,825)"/>
<path d="M0 0 C1.65 0 3.3 0 5 0 C4.34 2.31 3.68 4.62 3 7 C2.34 6.67 1.68 6.34 1 6 C0.375 2.9375 0.375 2.9375 0 0 Z " fill="#A3E578" transform="translate(496,808)"/>
<path d="M0 0 C0.33 0.99 0.66 1.98 1 3 C-1.64 4.98 -4.28 6.96 -7 9 C-5.04783565 5.09567131 -3.12613393 2.96160056 0 0 Z " fill="#B8EC9F" transform="translate(626,755)"/>
<path d="M0 0 C0.99 0.33 1.98 0.66 3 1 C1.7260411 3.03833424 0.38938077 5.03852126 -1 7 C-1.66 7 -2.32 7 -3 7 C-1.125 2.25 -1.125 2.25 0 0 Z " fill="#98E293" transform="translate(926,662)"/>
<path d="M0 0 C2.97851562 0.53710938 2.97851562 0.53710938 5.95703125 1.07421875 C5.95703125 1.40421875 5.95703125 1.73421875 5.95703125 2.07421875 C2.32703125 2.40421875 -1.30296875 2.73421875 -5.04296875 3.07421875 C-2.04296875 0.07421875 -2.04296875 0.07421875 0 0 Z " fill="#97DD8D" transform="translate(809.04296875,660.92578125)"/>
<path d="M0 0 C1.125 1.6875 1.125 1.6875 2 4 C1.125 6.75 1.125 6.75 0 9 C-1.125 7.3125 -1.125 7.3125 -2 5 C-1.125 2.25 -1.125 2.25 0 0 Z " fill="#A3DFA0" transform="translate(936,635)"/>
<path d="M0 0 C2.40921705 2.40921705 3.53812156 4.94334509 5 8 C4.01 8.33 3.02 8.66 2 9 C1 7 0 5 -1 3 C-0.67 2.01 -0.34 1.02 0 0 Z " fill="#93DC9A" transform="translate(921,505)"/>
<path d="M0 0 C0.99 0.33 1.98 0.66 3 1 C3.625 3.3125 3.625 3.3125 4 6 C3.01 7.485 3.01 7.485 2 9 C0.50178941 5.62902617 0 3.79557881 0 0 Z " fill="#97D89C" transform="translate(884,499)"/>
<path d="M0 0 C0.33 0.66 0.66 1.32 1 2 C1.66 2 2.32 2 3 2 C4.125 7.625 4.125 7.625 3 11 C2.49384702 9.73160474 1.99530901 8.46016898 1.5 7.1875 C1.2215625 6.47980469 0.943125 5.77210938 0.65625 5.04296875 C0 3 0 3 0 0 Z " fill="#0D110E" transform="translate(871,452)"/>
<path d="M0 0 C0.33 0.66 0.66 1.32 1 2 C0.236875 2.45375 -0.52625 2.9075 -1.3125 3.375 C-3.23632814 4.53824492 -5.12941224 5.7529415 -7 7 C-7.33 6.01 -7.66 5.02 -8 4 C-5.36 2.68 -2.72 1.36 0 0 Z " fill="#9BDF9A" transform="translate(594,323)"/>
<path d="M0 0 C0.66 0.33 1.32 0.66 2 1 C0.60667426 4.36720387 -0.9789286 5.9859524 -4 8 C-2.87548273 5.0280615 -1.77706209 2.66559313 0 0 Z " fill="#99E097" transform="translate(507,270)"/>
<path d="M0 0 C2.31 0 4.62 0 7 0 C7.33 0.66 7.66 1.32 8 2 C8.99 2.66 9.98 3.32 11 4 C6.55129785 4.39253254 3.85756507 3.15305957 0 1 C0 0.67 0 0.34 0 0 Z " fill="#94DDA5" transform="translate(715,199)"/>
<path d="M0 0 C0.33 0.99 0.66 1.98 1 3 C0.360625 3.12375 -0.27875 3.2475 -0.9375 3.375 C-1.618125 3.58125 -2.29875 3.7875 -3 4 C-3.33 4.66 -3.66 5.32 -4 6 C-4 5.34 -4 4.68 -4 4 C-4.66 3.67 -5.32 3.34 -6 3 C-4.02 2.01 -2.04 1.02 0 0 Z " fill="#B5EE8C" transform="translate(507,857)"/>
<path d="M0 0 C0.33 1.32 0.66 2.64 1 4 C-0.65 4.33 -2.3 4.66 -4 5 C-2.25 1.125 -2.25 1.125 0 0 Z " fill="#B0E985" transform="translate(527,845)"/>
<path d="M0 0 C2.97 0.33 5.94 0.66 9 1 C9 1.33 9 1.66 9 2 C4.545 2.495 4.545 2.495 0 3 C0 2.01 0 1.02 0 0 Z " fill="#97DD85" transform="translate(781,723)"/>
<path d="M0 0 C2.875 0.3125 2.875 0.3125 6 1 C6.66 1.99 7.32 2.98 8 4 C6 4 4 4 2 4 C1.34 2.68 0.68 1.36 0 0 Z " fill="#ABE8A9" transform="translate(828,595)"/>
<path d="M0 0 C0.99 0 1.98 0 3 0 C3 2.64 3 5.28 3 8 C0.37613513 4.93882432 0 4.26826873 0 0 Z " fill="#141517" transform="translate(882,485)"/>
<path d="M0 0 C0.99 0.33 1.98 0.66 3 1 C3.33 3.31 3.66 5.62 4 8 C3.67 7.34 3.34 6.68 3 6 C2.34 6 1.68 6 1 6 C0.67 4.02 0.34 2.04 0 0 Z " fill="#A1E0A9" transform="translate(865,442)"/>
<path d="M0 0 C2 3 2 3 1.625 6.1875 C1.41875 7.115625 1.2125 8.04375 1 9 C0.34 8.67 -0.32 8.34 -1 8 C-1.125 2.25 -1.125 2.25 0 0 Z " fill="#95D69F" transform="translate(854,402)"/>
<path d="M0 0 C1.89213369 2.38573379 3.02391783 4.07175348 4 7 C3.34 7.66 2.68 8.32 2 9 C1.87625 8.360625 1.7525 7.72125 1.625 7.0625 C1.315625 6.0415625 1.315625 6.0415625 1 5 C0.34 4.67 -0.32 4.34 -1 4 C-0.67 2.68 -0.34 1.36 0 0 Z " fill="#94DDA6" transform="translate(871,357)"/>
<path d="M0 0 C3.71888239 0.50712033 6.73454239 1.11608215 10 3 C6.71023192 4.09658936 5.28696233 3.79953138 2 3 C2 2.34 2 1.68 2 1 C1.34 0.67 0.68 0.34 0 0 Z " fill="#111313" transform="translate(738,172)"/>
</svg>
