<?xml version="1.0" encoding="UTF-8"?>
<svg version="1.1" xmlns="http://www.w3.org/2000/svg" width="512" height="512">
<path d="M0 0 C2.41788055 1.94783602 4.34444877 4.00652842 6.36499023 6.35180664 C13.9998565 15.0333773 23.52692945 18.31035325 34.09765625 22.4921875 C55.2584263 30.86539599 75.33937444 43.40216414 92.65234375 58.13671875 C93.1844043 58.58901855 93.71646484 59.04131836 94.26464844 59.50732422 C101.53014559 65.75866982 107.83899321 72.495064 113.65234375 80.13671875 C114.63267578 81.39355469 114.63267578 81.39355469 115.6328125 82.67578125 C130.78225215 102.69360371 142.60063822 127.16769195 146.48828125 152.12890625 C148.3284135 163.80046972 151.77285039 169.92705793 159.97607422 178.33398438 C162.94952425 181.53176402 165.53392249 185.0221946 168.15234375 188.51171875 C168.69648926 189.23238525 169.24063477 189.95305176 169.80126953 190.69555664 C170.89310029 192.1429539 171.98328383 193.59159526 173.07177734 195.04150391 C174.5605034 197.01497425 176.0658564 198.97422952 177.578125 200.9296875 C200.43420324 230.65381024 222.42048211 261.13255457 219.65234375 300.13671875 C219.063362 304.04619183 218.17668264 307.49524251 216.65234375 311.13671875 C216.19988281 312.23306641 216.19988281 312.23306641 215.73828125 313.3515625 C214.20738071 316.69340636 212.67089459 319.11573793 210.20703125 321.90234375 C207.4725294 325.12073484 206.04548024 328.62366744 204.65234375 332.57421875 C199.77099609 345.57739258 199.77099609 345.57739258 194.65234375 348.13671875 C191.59313801 348.55743467 188.70556915 348.62185992 185.65234375 348.13671875 C182.1408146 345.35675817 179.90219389 343.13551991 179.33984375 338.63671875 C179.77874148 333.7210642 181.66801327 329.61917958 183.65234375 325.13671875 C182.20214844 324.4096875 182.20214844 324.4096875 180.72265625 323.66796875 C160.97029446 313.57322081 160.97029446 313.57322081 155.65234375 305.13671875 C155.05622064 300.51676466 154.92221511 297.52410617 157.71484375 293.69921875 C161.26792109 290.59972575 162.95347813 289.9746889 167.65234375 290.13671875 C172.06551594 292.13513635 175.71471555 294.89343527 179.65234375 297.69921875 C184.87189478 301.39573969 189.08660102 304.13671875 195.65234375 304.13671875 C200.41466499 289.4702872 197.77060473 275.06445812 191.01464844 261.57714844 C185.86808209 251.63323443 180.12175578 242.26376524 173.65234375 233.13671875 C172.85505024 231.992479 172.0581742 230.84794824 171.26171875 229.703125 C163.29653984 218.3362854 154.89184844 207.24314838 146.08984375 196.51171875 C145.39503906 195.66222656 144.70023437 194.81273437 143.984375 193.9375 C142.19265324 191.78563316 140.37608422 189.6672347 138.5390625 187.5546875 C137.45140797 186.26988241 136.36416573 184.98472818 135.27734375 183.69921875 C134.76486084 183.12671387 134.25237793 182.55420898 133.72436523 181.96435547 C129.21792879 176.56680732 128.03494221 170.92387546 126.65234375 164.13671875 C126.21699309 162.22907666 125.77569741 160.32278041 125.328125 158.41796875 C125.10850098 157.47622803 124.88887695 156.5344873 124.66259766 155.56420898 C114.51795558 113.00143671 92.46328678 81.72865468 55.46484375 58.51171875 C40.3019827 49.23641656 24.73897541 41.32647311 7.79516602 35.86010742 C0.8190903 33.53474885 -3.00930674 30.40944086 -7.03515625 24.19921875 C-12.56059661 16.70949141 -21.37469323 12.82691677 -30.34765625 11.13671875 C-47.4946618 8.84535943 -63.26397085 11.41985915 -77.7734375 21.0859375 C-83.96330987 26.01717118 -88.31145664 32.64812809 -92.2421875 39.4453125 C-93.46610726 41.31795298 -94.61210364 42.71864527 -96.34765625 44.13671875 C-102.27903168 44.91460405 -106.24019905 43.93595951 -111.78515625 41.76171875 C-126.71797188 36.10143982 -143.187236 35.36202731 -158.01171875 41.88671875 C-170.58923914 48.61716444 -179.77023633 60.02694232 -184.125 73.55078125 C-185.07371144 77.47027525 -185.44130444 81.30747276 -185.72265625 85.32421875 C-186.12534029 89.86677735 -187.28471958 92.6362197 -190.34765625 96.13671875 C-193.21902859 97.89374305 -195.34701019 98.37681919 -198.69140625 98.375 C-199.51979004 98.38732666 -200.34817383 98.39965332 -201.20166016 98.41235352 C-202.07483887 98.42451904 -202.94801758 98.43668457 -203.84765625 98.44921875 C-217.02204985 98.90208114 -226.84537137 102.74679197 -236.34765625 112.13671875 C-246.90689131 124.22327174 -252.74145031 138.27661278 -252.59765625 154.26171875 C-252.60539062 155.12925781 -252.613125 155.99679688 -252.62109375 156.890625 C-252.60628534 161.75518622 -252.06581223 165.53451523 -250.34765625 170.13671875 C-250.09921067 172.99901892 -250.39961801 175.42086803 -251.34765625 178.13671875 C-254.40496324 181.63078388 -256.2708085 182.94442451 -260.84765625 183.76171875 C-265.18777706 182.98669718 -267.75144405 181.64085488 -270.34765625 178.13671875 C-277.81135957 162.28229162 -276.41408057 145.46947103 -271.34765625 129.13671875 C-269.64059008 124.61970658 -267.64297398 120.38219365 -265.34765625 116.13671875 C-264.88488281 115.26789063 -264.42210937 114.3990625 -263.9453125 113.50390625 C-254.35634405 96.55719746 -240.33206709 83.74331159 -221.45605469 78.30395508 C-216.30812686 76.89657599 -211.70411415 75.92377088 -206.34765625 76.13671875 C-206.28578125 75.08484375 -206.22390625 74.03296875 -206.16015625 72.94921875 C-204.26552962 58.08166256 -195.58070373 45.54589441 -185.34765625 35.13671875 C-184.73277344 34.50894531 -184.11789063 33.88117187 -183.484375 33.234375 C-171.50628549 21.92315985 -155.72446913 15.86669297 -139.34765625 15.13671875 C-138.6825 15.09675781 -138.01734375 15.05679688 -137.33203125 15.015625 C-126.63026536 14.67871756 -115.75911853 16.83394827 -105.34765625 19.13671875 C-104.92097656 18.53085937 -104.49429688 17.925 -104.0546875 17.30078125 C-92.02161011 1.1739765 -74.58654556 -8.11766259 -54.8359375 -11.45703125 C-35.80204516 -13.67374436 -16.14318226 -10.67719802 0 0 Z " fill="#FFFFFF" transform="translate(282.34765625,29.86328125)"/>
<path d="M0 0 C2.70567626 1.82339052 4.53728718 3.07457436 6 6 C6.08129119 12.47177374 4.30085323 17.02328826 0.875 22.375 C-17.12635329 52.58474659 -20.64941594 92.28185839 -12.47998047 126.15625 C-8.88252508 139.53016817 -2.46133789 154.63120298 9.4140625 162.625 C16.75459372 166.6247941 23.19288874 167.83819223 31.375 166.0625 C46.81951502 161.28874081 56.55605392 147.61302359 63.93603516 134.04443359 C80.31344298 102.57485738 84.18282299 63.10184168 73.67700195 29.25097656 C72.01146869 23.75353469 70.82111512 18.65249099 73.25 13.1875 C75.1582165 10.80222938 76.09348031 9.88810324 79 9 C82.98651055 8.56510794 85.16240062 8.45479431 88.5625 10.66796875 C97.99973016 19.69685722 100.63342158 41.60101603 101.12402344 54.17993164 C101.81364165 85.64482676 98.25835479 114.53794631 84 143 C83.68305176 143.63518555 83.36610352 144.27037109 83.03955078 144.92480469 C73.75124817 163.15472365 58.90377414 179.92224234 39.1875 186.875 C25.79452855 190.80135674 12.34533725 189.51736508 0.0546875 182.95703125 C-19.31495212 170.54758183 -30.15736095 148.93265014 -35 127 C-42.91735219 89.57960116 -38.12892602 48.83372895 -20.4375 14.875 C-20.07366211 14.17600586 -19.70982422 13.47701172 -19.33496094 12.75683594 C-16.64662096 7.78280421 -13.67354791 3.04972006 -9.125 -0.4375 C-5.79384074 -1.31927745 -3.32281116 -0.81612906 0 0 Z " fill="#FFFFFF" transform="translate(113,161)"/>
<path d="M0 0 C15.16675692 5.31123778 30.396518 9.56756108 46.0697937 13.12966919 C47.60826724 13.48116634 49.14569971 13.83726366 50.68185425 14.19876099 C52.59948027 14.64927007 54.52146998 15.08109895 56.44381714 15.51101685 C60.46635772 16.86019195 63.64771788 18.68444334 65.58834839 22.56570435 C66.14888404 28.39527512 65.0434301 30.93530424 61.58834839 35.56570435 C46.84538104 51.0583141 23.78732164 67.91118475 1.8576355 69.15432739 C-8.33662024 69.33246086 -18.37694478 67.47569287 -28.41522217 65.91186523 C-52.14193838 62.22773039 -75.96163117 60.33346171 -99.97415161 60.19070435 C-101.02336792 60.17878555 -101.02336792 60.17878555 -102.09378052 60.16662598 C-121.52074844 59.99506569 -134.33198263 65.41083936 -148.41165161 78.56570435 C-158.50137867 89.29216175 -166.44737151 102.20975012 -173.28079224 115.19924927 C-175.96234108 120.18246087 -178.75926128 124.66276295 -184.34915161 126.56570435 C-188.22210234 126.56570435 -190.19762323 125.70838993 -193.41165161 123.56570435 C-196.0885998 120.54334349 -196.4297444 119.07852179 -196.28665161 115.0227356 C-195.50470393 109.62649807 -193.04986735 105.18544386 -190.47415161 100.44070435 C-189.73261841 99.05528442 -189.73261841 99.05528442 -188.97610474 97.64187622 C-184.70047721 89.80595604 -179.96253442 82.54873185 -174.41165161 75.56570435 C-173.96821411 75.00415649 -173.52477661 74.44260864 -173.06790161 73.86404419 C-159.26102152 56.55151095 -142.11223987 41.65233938 -119.41165161 38.56570435 C-116.39479167 38.40538789 -113.38158163 38.37864246 -110.36087036 38.36257935 C-109.48264618 38.35556503 -108.604422 38.34855072 -107.69958496 38.34132385 C-104.83272205 38.32372734 -101.96606679 38.31745752 -99.09915161 38.31570435 C-98.11325043 38.3150296 -97.12734924 38.31435486 -96.11157227 38.31365967 C-69.66979717 38.34228239 -43.81805469 41.13158771 -17.67752075 44.93948364 C-0.51812857 47.41592997 10.62718001 46.06178272 25.58834839 36.56570435 C27.3029626 34.94840608 28.98519312 33.29354946 30.58834839 31.56570435 C29.43367065 31.44872192 28.27899292 31.3317395 27.08932495 31.21121216 C22.74267253 30.66450995 18.73638375 29.57018027 14.57272339 28.23757935 C13.83564148 28.00669617 13.09855957 27.77581299 12.33914185 27.53793335 C10.78850589 27.05037049 9.23893287 26.55941519 7.69039917 26.06521606 C5.36104361 25.32293648 3.02784255 24.59392926 0.69381714 23.8664856 C-25.53963209 15.61831133 -25.53963209 15.61831133 -29.41165161 8.56570435 C-30.31393037 4.36058868 -29.89317689 1.34610738 -27.59915161 -2.37179565 C-20.32212508 -9.2329921 -8.14112354 -2.85929092 0 0 Z " fill="#FFFFFF" transform="translate(403.4116516113281,368.4342956542969)"/>
</svg>